<?xml version="1.0" encoding="utf-8"?>
<!-- Generator: Adobe Illustrator 25.3.1, SVG Export Plug-In . SVG Version: 6.00 Build 0)  -->
<svg version="1.1" id="Camada_1" xmlns="http://www.w3.org/2000/svg" xmlns:xlink="http://www.w3.org/1999/xlink" x="0px" y="0px"
	 viewBox="0 0 1002.4 959.3" style="enable-background:new 0 0 1002.4 959.3;" xml:space="preserve">
<style type="text/css">
	.st0{fill:#29241F;stroke:#29241F;stroke-width:54.3002;stroke-linecap:round;stroke-linejoin:round;}
	.st1{fill:none;stroke:#29241F;stroke-width:54.3002;stroke-linecap:round;stroke-linejoin:round;}
</style>
<g>
	<path class="st0" d="M371.9,932.2c23.8,0,43.1-19.3,43.1-43.1S395.7,846,371.9,846c-23.8,0-43.1,19.3-43.1,43.1
		S348.1,932.2,371.9,932.2z"/>
	<path class="st0" d="M845.9,932.2c23.8,0,43.1-19.3,43.1-43.1S869.7,846,845.9,846s-43.1,19.3-43.1,43.1S822.1,932.2,845.9,932.2z"
		/>
	<path class="st1" d="M27.2,27.2h172.4l115.5,577c3.9,19.8,14.7,37.7,30.5,50.3c15.8,12.7,35.5,19.4,55.7,19h418.9
		c20.2,0.4,39.9-6.4,55.7-19s26.6-30.5,30.5-50.3l69-361.6H242.6"/>
</g>
</svg>
