<svg width="19" height="18" viewBox="0 0 19 18" fill="none" xmlns="http://www.w3.org/2000/svg">
<path d="M17.0662 2.41452C16.6433 1.96607 16.1413 1.61034 15.5887 1.36763C15.0361 1.12492 14.4438 1 13.8456 1C13.2475 1 12.6552 1.12492 12.1026 1.36763C11.55 1.61034 11.0479 1.96607 10.6251 2.41452L9.74747 3.34476L8.86988 2.41452C8.01573 1.50912 6.85726 1.00047 5.64931 1.00047C4.44136 1.00047 3.28288 1.50912 2.42873 2.41452C1.57458 3.31992 1.09473 4.5479 1.09473 5.82833C1.09473 7.10875 1.57458 8.33674 2.42873 9.24214L3.30632 10.1724L9.74747 17L16.1886 10.1724L17.0662 9.24214C17.4893 8.79391 17.8249 8.26171 18.0538 7.67596C18.2828 7.0902 18.4007 6.46237 18.4007 5.82833C18.4007 5.19428 18.2828 4.56645 18.0538 3.9807C17.8249 3.39494 17.4893 2.86275 17.0662 2.41452V2.41452Z" stroke="#F1B51C" stroke-linecap="round" stroke-linejoin="round"/>
</svg>
