<svg width="18" height="16" viewBox="0 0 18 16" fill="none" xmlns="http://www.w3.org/2000/svg">
<path d="M15.7663 2.51202C15.3753 2.13831 14.9111 1.84187 14.4002 1.63961C13.8893 1.43735 13.3417 1.33325 12.7887 1.33325C12.2357 1.33325 11.6881 1.43735 11.1772 1.63961C10.6663 1.84187 10.2021 2.13831 9.81116 2.51202L8.9998 3.28722L8.18843 2.51202C7.39874 1.75752 6.32768 1.33364 5.21089 1.33364C4.09409 1.33364 3.02303 1.75752 2.23334 2.51202C1.44365 3.26651 1 4.28983 1 5.35686C1 6.42388 1.44365 7.4472 2.23334 8.2017L3.0447 8.9769L8.9998 14.6666L14.9549 8.9769L15.7663 8.2017C16.1574 7.82817 16.4677 7.38468 16.6794 6.89655C16.891 6.40842 17 5.88523 17 5.35686C17 4.82849 16.891 4.30529 16.6794 3.81716C16.4677 3.32904 16.1574 2.88554 15.7663 2.51202V2.51202Z" stroke="#333333" stroke-linecap="round" stroke-linejoin="round"/>
</svg>
