<svg width="34" height="29" viewBox="0 0 34 29" fill="none" xmlns="http://www.w3.org/2000/svg">
<path d="M0 7C0 3.13401 3.13401 0 7 0H34V26C34 27.6569 32.6569 29 31 29H0V7Z" fill="#F1F1F1"/>
<path fill-rule="evenodd" clip-rule="evenodd" d="M20.0105 11.0274V9.29943C20.0105 8.83314 19.897 8.39429 19.6699 7.98286C19.4429 7.57143 19.1347 7.24572 18.7455 7.00571C18.3563 6.76571 17.9411 6.64571 17.5 6.64571C17.0589 6.64571 16.6437 6.76571 16.2545 7.00571C15.8653 7.24572 15.5571 7.57143 15.3301 7.98286C15.103 8.39429 14.9895 8.83314 14.9895 9.29943V11.0274H20.0105ZM22.3653 11.0274C22.8064 11.0274 23.1891 11.192 23.5135 11.5211C23.8378 11.8503 24 12.248 24 12.7143V21.3131C24 21.7794 23.8378 22.1771 23.5135 22.5063C23.1891 22.8354 22.8064 23 22.3653 23H12.6347C12.1936 23 11.8109 22.8354 11.4865 22.5063C11.1622 22.1771 11 21.7794 11 21.3131V12.7143C11 12.248 11.1622 11.8503 11.4865 11.5211C11.8109 11.192 12.1936 11.0274 12.6347 11.0274H13.4326V9.29943C13.4326 8.51771 13.6143 7.79772 13.9775 7.13943C14.3408 6.48114 14.8338 5.96 15.4566 5.576C16.0793 5.192 16.7605 5 17.5 5C18.2395 5 18.9207 5.192 19.5434 5.576C20.1662 5.96 20.6592 6.48114 21.0225 7.13943C21.3857 7.79772 21.5674 8.51771 21.5674 9.29943V11.0274H22.3653Z" fill="#B4B4B4"/>
</svg>
