<svg width="16" height="14" viewBox="0 0 16 14" fill="none" xmlns="http://www.w3.org/2000/svg">
<path d="M14.7663 1.51202C14.3753 1.13831 13.9111 0.841866 13.4002 0.63961C12.8893 0.437354 12.3417 0.333252 11.7887 0.333252C11.2357 0.333252 10.6881 0.437354 10.1772 0.63961C9.66629 0.841866 9.20211 1.13831 8.81116 1.51202L7.9998 2.28722L7.18843 1.51202C6.39874 0.757516 5.32768 0.333643 4.21089 0.333643C3.09409 0.333643 2.02303 0.757516 1.23334 1.51202C0.443646 2.26651 8.32078e-09 3.28983 0 4.35686C-8.32078e-09 5.42388 0.443646 6.4472 1.23334 7.2017L2.0447 7.9769L7.9998 13.6666L13.9549 7.9769L14.7663 7.2017C15.1574 6.82817 15.4677 6.38468 15.6794 5.89655C15.891 5.40842 16 4.88523 16 4.35686C16 3.82849 15.891 3.30529 15.6794 2.81716C15.4677 2.32904 15.1574 1.88554 14.7663 1.51202Z" fill="#F1B51C"/>
</svg>
