<svg width="144" height="16" viewBox="0 0 144 16" fill="none" xmlns="http://www.w3.org/2000/svg">
<g clip-path="url(#clip0_4136_11078)">
<path d="M0.0898438 5.72508C0.0898438 5.30323 0.451426 4.94165 0.873271 4.94165H1.98815C2.40999 4.94165 2.77158 5.30323 2.77158 5.72508V14.855C2.77158 15.2769 2.40999 15.6385 1.98815 15.6385H0.873271C0.451426 15.6385 0.0898438 15.2769 0.0898438 14.855V5.72508Z" fill="#686868"/>
<path d="M5.0918 5.33321C5.0918 5.12229 5.27255 4.94149 5.48343 4.94149H7.26083C7.47171 4.94149 7.68259 5.12229 7.68259 5.33321L7.71272 5.75505C7.71272 5.96598 7.86334 6.02624 8.01397 5.87558C8.01397 5.87558 8.0441 5.84545 8.22485 5.69479C8.4056 5.514 8.64661 5.36334 8.91774 5.21268C9.18887 5.06202 9.49012 4.94149 9.8215 4.8511C10.1529 4.7607 10.5445 4.70044 10.9663 4.70044C12.2918 4.70044 13.3161 5.09215 14.0391 5.90571C14.732 6.71927 15.0332 8.7381 15.0332 8.7381C15.0633 8.94903 15.0935 9.31061 15.0935 9.52153V15.2466C15.0935 15.4575 14.9127 15.6383 14.7018 15.6383H12.8039C12.593 15.6383 12.4123 15.4575 12.4123 15.2466V9.55166C12.4123 9.34074 12.3822 8.97916 12.352 8.76824C12.352 8.76824 12.2315 7.95468 11.8399 7.56296C11.4784 7.20138 10.9964 6.99046 10.3939 6.99046C10.0324 6.99046 9.701 7.05072 9.36962 7.20138C9.03824 7.35204 8.76711 7.56296 8.55623 7.80402C8.31523 8.0752 8.13447 8.37652 8.01397 8.70797C7.89347 9.03942 7.86334 9.43114 7.86334 9.43114C7.83322 9.64206 7.83322 10.0036 7.83322 10.2146V15.2164C7.83322 15.4274 7.65247 15.6082 7.44159 15.6082H5.54368C5.3328 15.6082 5.15205 15.4274 5.15205 15.2164V5.33321H5.0918Z" fill="#686868"/>
<path d="M17.3212 7.53296C17.3212 7.32203 17.1404 7.14124 16.9296 7.14124H15.9053C15.6944 7.14124 15.5137 6.96045 15.5137 6.74953V5.36346C15.5137 5.15254 15.6944 4.97175 15.9053 4.97175H16.9296C17.1404 4.97175 17.3212 4.82109 17.3212 4.6403C17.3212 4.45951 17.3513 4.12806 17.3513 3.91714C17.3513 3.91714 17.4417 2.89266 17.6827 2.35028C17.9237 1.80791 18.225 1.35593 18.6166 1.02448C19.0082 0.693032 19.43 0.421846 19.8819 0.271186C20.3639 0.0903955 20.8459 0 21.2978 0C21.7798 0 22.322 0.0602636 22.9245 0.210923C23.4969 0.33145 24.3103 0.903955 24.3103 0.903955C24.4911 1.02448 24.5212 1.26554 24.4007 1.44633L23.6174 2.59134C23.4969 2.77213 23.2258 2.83239 23.0451 2.71186C23.0451 2.71186 22.8643 2.62147 22.5932 2.50094C22.322 2.38041 22.0208 2.35028 21.7497 2.35028C21.2074 2.35028 20.7856 2.53107 20.4844 2.86252C20.1831 3.19397 20.0626 3.94727 20.0626 3.94727C20.0325 4.15819 20.0024 4.48964 20.0024 4.6403C20.0024 4.82109 20.1831 4.94162 20.394 4.94162H22.3522C22.563 4.94162 22.7438 5.12241 22.7438 5.33333V6.7194C22.7438 6.93032 22.563 7.11111 22.3522 7.11111H20.394C20.1831 7.11111 20.0024 7.2919 20.0024 7.50282V15.2166C20.0024 15.4275 19.8216 15.6083 19.6107 15.6083H17.7128C17.502 15.6083 17.3212 15.4275 17.3212 15.2166V7.53296Z" fill="#686868"/>
<path d="M24.5215 5.33321C24.5215 5.12229 24.7022 4.94149 24.9131 4.94149H26.6905C26.9014 4.94149 27.0822 5.12229 27.1123 5.33321L27.1424 5.87558C27.1424 6.0865 27.293 6.14677 27.4135 5.96598C27.4135 5.96598 27.4437 5.93584 27.6244 5.75505C27.8052 5.57426 28.0462 5.39347 28.2872 5.24281C28.5282 5.09215 28.8596 4.97163 29.1909 4.8511C29.5223 4.73057 29.9139 4.70044 30.3658 4.70044C30.637 4.70044 30.8478 4.73057 31.0587 4.73057C31.2696 4.7607 31.2997 4.7607 31.2997 4.7607C31.5106 4.82097 31.6311 5.06202 31.601 5.27294L31.2093 7.02059C31.1491 7.23151 30.9683 7.35204 30.7575 7.29178C30.7575 7.29178 30.7575 7.29178 30.5767 7.26164C30.396 7.23151 30.155 7.20138 29.9139 7.20138C29.5524 7.20138 29.1909 7.26164 28.8596 7.38217C28.5282 7.5027 28.2269 7.68349 27.9859 7.89441C27.7449 8.13547 27.534 8.40665 27.4135 8.70797C27.2629 9.03942 27.2328 9.37087 27.2328 9.37087C27.2027 9.58179 27.2027 9.94338 27.2027 10.1543V15.126C27.2027 15.337 27.0219 15.5178 26.811 15.5178H24.9131C24.7022 15.5178 24.5215 15.337 24.5215 15.126V5.33321Z" fill="#686868"/>
<path d="M38.8912 15.0357C38.8912 14.8248 38.7405 14.7645 38.5598 14.9152C38.5598 14.9152 38.138 15.3069 37.5355 15.5781C36.933 15.8493 36.2702 15.9999 35.5472 15.9999C35.0953 15.9999 34.6736 15.9397 34.2217 15.789C33.8 15.6384 33.3782 15.4274 33.0468 15.1562C32.6853 14.8851 32.4142 14.5235 32.1732 14.0715C31.9623 13.6195 31.8418 13.1073 31.8418 12.5046C31.8418 11.902 31.9623 11.3596 32.1732 10.8775C32.4142 10.3954 32.7154 10.0037 33.1372 9.67225C33.559 9.3408 34.041 9.09975 34.6133 8.91896C35.1857 8.73817 35.8184 8.6779 36.5414 8.6779C36.7523 8.6779 36.9933 8.6779 37.2343 8.6779C37.5054 8.6779 37.7464 8.70803 37.9874 8.70803C38.2585 8.73817 38.4393 8.73817 38.4393 8.73817C38.6502 8.73817 38.8309 8.70803 38.8309 8.64777C38.8309 8.58751 38.8008 8.34645 38.7405 8.13553C38.7405 8.13553 38.62 7.56303 38.1983 7.26171C37.7765 6.96039 37.2041 6.80973 36.5414 6.80973C35.7882 6.80973 35.1857 6.90013 34.7037 7.11105C34.2518 7.32197 33.8301 7.56303 33.8301 7.56303C33.6493 7.68355 33.3782 7.62329 33.2577 7.4425L32.4744 6.26736C32.3539 6.08657 32.4142 5.84551 32.5949 5.72498C32.5949 5.72498 32.7154 5.63459 32.9866 5.48393C33.2577 5.33327 33.5891 5.18261 33.9506 5.06208C34.3121 4.94156 34.7338 4.82103 35.2159 4.73063C35.6979 4.64024 36.2401 4.61011 36.9029 4.61011C37.5958 4.61011 38.1983 4.7005 38.7707 4.88129C39.3129 5.06208 39.7949 5.33327 40.1866 5.69485C40.5782 6.0263 40.8794 6.44815 41.0903 6.93026C41.3012 7.41237 41.3615 8.1054 41.3615 8.1054C41.3916 8.31632 41.3916 8.6779 41.3916 8.88883V15.2768C41.3916 15.4877 41.2108 15.6685 40.9999 15.6685H39.2828C39.0719 15.6685 38.861 15.4877 38.861 15.2768L38.8912 15.0357ZM38.861 11.1788C38.861 10.9679 38.6803 10.757 38.4694 10.757C38.4694 10.757 38.3188 10.757 38.0778 10.7269C37.8669 10.6967 37.6259 10.6967 37.415 10.6967C37.174 10.6967 36.9631 10.6967 36.8125 10.6967C35.9389 10.6967 35.3364 10.8775 34.9748 11.209C34.6133 11.5404 34.4627 11.9321 34.4627 12.3841C34.4627 12.8361 34.6133 13.1977 34.9447 13.4689C35.2761 13.74 35.7581 13.8606 36.3907 13.8606C36.7221 13.8606 37.0234 13.8003 37.3246 13.7099C37.6259 13.5894 37.897 13.4689 38.1079 13.2881C38.3489 13.1073 38.5297 12.8964 38.6803 12.6553C38.8309 12.4142 38.8309 12.2636 38.8309 12.2636C38.861 12.0527 38.8912 11.6911 38.8912 11.4802V11.1788H38.861Z" fill="#686868"/>
<path d="M0 1.2053C0 0.783457 0.361582 0.421875 0.783427 0.421875H2.0791C2.50094 0.421875 2.86252 0.783457 2.86252 1.2053V2.44071C2.86252 2.86255 2.50094 3.22414 2.0791 3.22414H0.783427C0.361582 3.25427 0 2.89268 0 2.44071V1.2053Z" fill="#686868"/>
<path d="M55.43 13.9511C55.5807 14.1017 55.5505 14.3729 55.3999 14.4934C55.3999 14.4934 54.6167 15.1865 53.9238 15.5179C53.2309 15.8494 52.4476 16 51.5137 16C50.5798 16 49.7966 15.8494 49.0736 15.5782C48.3506 15.307 47.748 14.9153 47.266 14.4031C46.784 13.8908 46.3924 13.2882 46.1514 12.5951C45.8803 11.9021 45.7598 11.1187 45.7598 10.275C45.7598 9.49156 45.9104 8.7684 46.1815 8.07537C46.4527 7.38234 46.8443 6.7797 47.3564 6.26746C47.8685 5.75522 48.4711 5.33337 49.1639 5.03206C49.8568 4.73074 50.6401 4.58008 51.5137 4.58008C52.3874 4.58008 53.1706 4.73074 53.8936 5.06219C54.6166 5.36351 55.43 6.05654 55.43 6.05654C55.5807 6.2072 55.6108 6.44825 55.4602 6.59891L54.3154 7.77405C54.1648 7.92471 53.8936 7.92471 53.743 7.77405C53.743 7.77405 53.3815 7.41247 52.9598 7.23168C52.538 7.02076 52.0861 6.93036 51.5439 6.93036C51.0317 6.93036 50.5798 7.02076 50.1882 7.20155C49.7966 7.38234 49.4953 7.65352 49.2543 7.95484C49.0133 8.25616 48.8024 8.61774 48.6819 9.03959C48.5614 9.46143 48.5012 9.88328 48.5012 10.3051C48.5012 10.727 48.5614 11.1187 48.6819 11.5104C48.8024 11.9021 48.9832 12.2637 49.2543 12.5951C49.4953 12.9266 49.8267 13.1676 50.1882 13.3786C50.5798 13.5895 51.0317 13.6799 51.5439 13.6799C52.0861 13.6799 52.5681 13.5895 52.9899 13.3786C53.4418 13.1676 53.8033 12.8061 53.8033 12.8061C53.9539 12.6554 54.225 12.6554 54.3756 12.8362L55.43 13.9511Z" fill="#686868"/>
<path d="M55.5215 10.275C55.5215 9.49156 55.6721 8.7684 55.9432 8.07537C56.2144 7.38234 56.606 6.7797 57.1181 6.26746C57.6303 5.75522 58.2328 5.33337 58.9257 5.03206C59.6186 4.73074 60.4018 4.58008 61.2755 4.58008C62.119 4.58008 62.9022 4.73074 63.6252 5.03206C64.3181 5.33337 64.9508 5.75522 65.4328 6.26746C65.9449 6.7797 66.3365 7.38234 66.6077 8.07537C66.8788 8.7684 67.0294 9.49156 67.0294 10.275C67.0294 11.0584 66.8788 11.7816 66.6077 12.4746C66.3365 13.1676 65.9449 13.7703 65.4328 14.3127C64.9206 14.8249 64.3181 15.2467 63.6252 15.5481C62.9324 15.8494 62.1491 16 61.2755 16C60.4319 16 59.6487 15.8494 58.9257 15.5481C58.2328 15.2467 57.6001 14.8249 57.1181 14.3127C56.606 13.8004 56.2144 13.1676 55.9432 12.4746C55.6721 11.7816 55.5215 11.0584 55.5215 10.275ZM61.2755 13.6799C61.7876 13.6799 62.2395 13.5895 62.6311 13.3786C63.0227 13.1676 63.324 12.8965 63.565 12.565C63.806 12.2336 64.0169 11.872 64.1374 11.4803C64.2579 11.0886 64.3181 10.6968 64.3181 10.3051C64.3181 9.91341 64.2579 9.5217 64.1374 9.12998C64.0169 8.73827 63.8361 8.37669 63.565 8.04524C63.324 7.71379 62.9926 7.4426 62.6311 7.23168C62.2395 7.02076 61.7876 6.93036 61.2755 6.93036C60.7633 6.93036 60.3114 7.02076 59.9198 7.23168C59.5282 7.4426 59.2269 7.71379 58.9859 8.04524C58.7449 8.37669 58.534 8.73827 58.4135 9.12998C58.293 9.5217 58.2328 9.91341 58.2328 10.3051C58.2328 10.6968 58.293 11.0886 58.4135 11.4803C58.534 11.872 58.7148 12.2336 58.9859 12.565C59.2269 12.8965 59.5583 13.1676 59.9198 13.3786C60.3114 13.5895 60.7633 13.6799 61.2755 13.6799Z" fill="#686868"/>
<path d="M114.447 13.8003C114.598 13.951 114.628 14.1619 114.538 14.2824C114.538 14.2824 114.538 14.2824 114.327 14.4933C114.116 14.7043 113.815 14.9152 113.423 15.1562C113.032 15.3973 112.55 15.5781 111.947 15.7589C111.345 15.9397 110.622 16.0301 109.778 16.0301C108.934 16.0301 108.151 15.8794 107.458 15.6082C106.765 15.3069 106.163 14.9152 105.681 14.403C105.199 13.8907 104.807 13.2881 104.536 12.5649C104.265 11.8417 104.145 11.0583 104.145 10.1845C104.145 9.40107 104.265 8.64777 104.536 7.98487C104.807 7.32197 105.169 6.71934 105.651 6.20709C106.133 5.69485 106.705 5.30314 107.368 5.03195C108.031 4.73063 108.754 4.61011 109.567 4.61011C110.531 4.61011 111.375 4.7909 112.037 5.15248C112.7 5.51406 113.273 5.96604 113.664 6.56868C114.086 7.14118 114.357 7.80408 114.568 8.52725C114.749 9.25041 114.809 10.3653 114.809 10.3653C114.809 10.5762 114.839 10.8474 114.839 10.9679C114.839 11.0885 114.658 11.1487 114.447 11.1487H107.247C107.037 11.1487 106.886 11.3295 106.886 11.5404C106.886 11.5404 106.916 11.902 107.097 12.2335C107.278 12.5649 107.488 12.8361 107.79 13.047C108.061 13.2881 108.392 13.4387 108.754 13.5593C109.115 13.6798 109.477 13.7401 109.808 13.7401C110.32 13.7401 110.772 13.6798 111.164 13.5894C111.555 13.499 111.887 13.3785 112.158 13.2579C112.429 13.1374 112.67 12.9868 112.821 12.8361C113.001 12.6854 113.001 12.6854 113.001 12.6854C113.122 12.5649 113.333 12.595 113.483 12.7758L114.447 13.8003ZM111.706 9.16001C111.917 9.16001 112.098 8.97922 112.068 8.7683C112.068 8.7683 112.068 8.61764 111.947 8.34645C111.827 8.07527 111.676 7.83421 111.465 7.59316C111.254 7.38224 110.983 7.20144 110.682 7.05079C110.35 6.90013 109.989 6.83986 109.597 6.83986C109.145 6.83986 108.754 6.90013 108.422 7.05079C108.091 7.20144 107.79 7.38224 107.579 7.59316C107.338 7.80408 107.187 8.07527 107.067 8.34645C106.946 8.61764 106.916 8.7683 106.916 8.7683C106.886 8.97922 107.037 9.16001 107.278 9.16001H111.706Z" fill="#686868"/>
<path d="M116.465 5.33321C116.465 5.12229 116.646 4.94149 116.856 4.94149H118.634C118.845 4.94149 119.026 5.12229 119.056 5.33321L119.086 5.87558C119.086 6.0865 119.236 6.14677 119.357 5.96598C119.357 5.96598 119.387 5.93584 119.568 5.75505C119.749 5.57426 119.99 5.39347 120.231 5.24281C120.502 5.09215 120.803 4.97163 121.134 4.8511C121.466 4.73057 121.857 4.70044 122.309 4.70044C122.58 4.70044 122.791 4.73057 123.002 4.73057C123.213 4.7607 123.243 4.7607 123.243 4.7607C123.454 4.82097 123.574 5.06202 123.544 5.27294L123.153 7.02059C123.092 7.23151 122.912 7.35204 122.701 7.29178C122.701 7.29178 122.701 7.29178 122.52 7.26164C122.339 7.23151 122.098 7.20138 121.857 7.20138C121.496 7.20138 121.134 7.26164 120.803 7.38217C120.472 7.5027 120.17 7.68349 119.929 7.89441C119.688 8.13547 119.477 8.40665 119.357 8.70797C119.206 9.03942 119.176 9.37087 119.176 9.37087C119.146 9.58179 119.146 9.94338 119.146 10.1543V15.126C119.146 15.337 118.965 15.5178 118.754 15.5178H116.856C116.646 15.5178 116.465 15.337 116.465 15.126V5.33321Z" fill="#686868"/>
<path d="M133.215 13.9511C133.366 14.1017 133.336 14.3729 133.185 14.4934C133.185 14.4934 132.402 15.1865 131.709 15.5179C131.016 15.8494 130.233 16 129.299 16C128.395 16 127.582 15.8494 126.859 15.5782C126.136 15.307 125.533 14.9153 125.051 14.4031C124.569 13.8908 124.178 13.2882 123.937 12.5951C123.696 11.9021 123.545 11.1187 123.545 10.275C123.545 9.49156 123.696 8.7684 123.967 8.07537C124.238 7.38234 124.629 6.7797 125.142 6.26746C125.654 5.75522 126.256 5.33337 126.949 5.03206C127.642 4.73074 128.425 4.58008 129.299 4.58008C130.173 4.58008 130.956 4.73074 131.679 5.06219C132.402 5.36351 133.215 6.05654 133.215 6.05654C133.366 6.2072 133.396 6.44825 133.245 6.59891L132.101 7.77405C131.95 7.92471 131.679 7.92471 131.528 7.77405C131.528 7.77405 131.167 7.41247 130.745 7.23168C130.323 7.02076 129.871 6.93036 129.329 6.93036C128.817 6.93036 128.365 7.02076 127.973 7.20155C127.582 7.38234 127.28 7.65352 127.039 7.95484C126.798 8.25616 126.588 8.61774 126.467 9.03959C126.347 9.46143 126.286 9.88328 126.286 10.3051C126.286 10.727 126.347 11.1187 126.467 11.5104C126.588 11.9021 126.768 12.2637 127.039 12.5951C127.311 12.9266 127.612 13.1676 127.973 13.3786C128.365 13.5895 128.817 13.6799 129.329 13.6799C129.871 13.6799 130.353 13.5895 130.775 13.3786C131.227 13.1676 131.588 12.8061 131.588 12.8061C131.739 12.6554 132.01 12.6554 132.161 12.8362L133.215 13.9511Z" fill="#686868"/>
<path d="M143.608 13.8003C143.758 13.951 143.788 14.1619 143.698 14.2824C143.698 14.2824 143.698 14.2824 143.487 14.4933C143.276 14.7043 142.975 14.9152 142.583 15.1562C142.192 15.3973 141.71 15.5781 141.107 15.7589C140.505 15.9397 139.782 16.0301 138.938 16.0301C138.095 16.0301 137.311 15.8794 136.618 15.6082C135.926 15.3069 135.323 14.9152 134.841 14.403C134.359 13.8907 133.967 13.2881 133.696 12.5649C133.425 11.8417 133.305 11.0583 133.305 10.1845C133.305 9.40107 133.425 8.64777 133.696 7.98487C133.967 7.32197 134.329 6.71934 134.811 6.20709C135.293 5.69485 135.865 5.30314 136.528 5.03195C137.191 4.73063 137.914 4.61011 138.727 4.61011C139.691 4.61011 140.535 4.7909 141.198 5.15248C141.86 5.51406 142.433 5.96604 142.824 6.56868C143.246 7.14118 143.517 7.80408 143.728 8.52725C143.909 9.25041 143.969 10.3653 143.969 10.3653C143.969 10.5762 143.999 10.8474 143.999 10.9679C143.999 11.0885 143.818 11.1487 143.608 11.1487H136.408C136.197 11.1487 136.046 11.3295 136.046 11.5404C136.046 11.5404 136.076 11.902 136.257 12.2335C136.438 12.5649 136.649 12.8361 136.95 13.047C137.221 13.2881 137.552 13.4387 137.914 13.5593C138.275 13.6798 138.637 13.7401 138.968 13.7401C139.48 13.7401 139.932 13.6798 140.324 13.5894C140.716 13.499 141.047 13.3785 141.318 13.2579C141.589 13.1374 141.83 12.9868 141.981 12.8361C142.192 12.6553 142.192 12.6553 142.192 12.6553C142.312 12.5348 142.523 12.5649 142.674 12.7457L143.608 13.8003ZM140.836 9.16001C141.047 9.16001 141.228 8.97922 141.198 8.7683C141.198 8.7683 141.198 8.61764 141.077 8.34645C140.957 8.07527 140.806 7.83421 140.595 7.59316C140.384 7.38224 140.113 7.20144 139.812 7.05079C139.48 6.90013 139.119 6.83986 138.727 6.83986C138.275 6.83986 137.884 6.90013 137.552 7.05079C137.221 7.20144 136.92 7.38224 136.709 7.59316C136.468 7.80408 136.317 8.07527 136.197 8.34645C136.076 8.61764 136.046 8.7683 136.046 8.7683C136.016 8.97922 136.167 9.16001 136.408 9.16001H140.836Z" fill="#686868"/>
<path d="M103.18 9.52163V9.12992C103.18 7.77399 102.819 6.71937 102.126 5.90582C102.126 5.90582 102.126 5.90582 102.096 5.87568C101.372 5.06212 100.348 4.67041 98.9926 4.67041C98.5708 4.67041 98.2093 4.70054 97.8478 4.79094C97.5465 4.8512 97.2754 4.9416 97.0043 5.03199C96.944 5.06212 96.8537 5.09226 96.7633 5.15252C96.3415 5.36344 95.9499 5.63463 95.5583 6.02634C95.4378 6.08661 95.3173 6.11674 95.1968 6.08661C94.4737 5.18265 93.4495 4.70054 92.1239 4.70054C91.7022 4.70054 91.3106 4.76081 91.0093 4.8512C90.7984 4.91146 90.5875 5.00186 90.4068 5.06212C90.3164 5.09226 90.226 5.15252 90.1357 5.18265C90.1055 5.21278 90.0754 5.21278 90.0453 5.24291C89.8344 5.36344 89.6537 5.5141 89.4729 5.66476C89.4729 5.66476 89.4729 5.66476 89.4428 5.69489C89.2921 5.84555 89.262 5.87568 89.262 5.87568C89.1114 6.02634 88.9909 5.99621 88.9608 5.78529L88.9306 5.36344C88.9306 5.15252 88.7198 4.97173 88.5089 4.97173H86.7315C86.5206 4.97173 86.3398 5.15252 86.3398 5.36344V5.72502V14.4633V15.2467C86.3398 15.4576 86.5206 15.6384 86.7315 15.6384H88.6294C88.8403 15.6384 89.021 15.4576 89.021 15.2467V10.2448C89.021 10.0339 89.021 9.67229 89.0511 9.46137C89.0511 9.46137 89.0511 9.34084 89.0813 9.19018C89.1114 9.03953 89.1415 8.88887 89.1716 8.76834C89.2921 8.43689 89.4428 8.1657 89.6235 7.92465C89.6537 7.89452 89.6537 7.89452 89.6537 7.86438C89.6838 7.83425 89.7139 7.80412 89.744 7.77399C89.8947 7.5932 90.1055 7.47267 90.2863 7.35214C90.3465 7.32201 90.3767 7.29188 90.4369 7.26175C90.467 7.23162 90.4972 7.23162 90.5273 7.23162C90.7984 7.11109 91.0997 7.05082 91.4311 7.05082C91.8829 7.05082 92.2445 7.14122 92.5457 7.35214C92.6361 7.41241 92.7265 7.5028 92.8168 7.5932C92.8771 7.65346 92.9072 7.71372 92.9373 7.77399C93.1783 8.19583 93.2687 8.79847 93.2687 8.79847C93.2988 9.00939 93.329 9.37098 93.329 9.5819V14.4633V15.2467C93.329 15.4576 93.5097 15.6384 93.7206 15.6384H95.6185C95.8294 15.6384 96.0102 15.4576 96.0102 15.2467V10.2448C96.0102 10.0339 96.0101 9.67229 96.0403 9.46137C96.0403 9.46137 96.0403 9.34084 96.0704 9.19018C96.1005 9.03953 96.1307 8.88887 96.1608 8.76834C96.2813 8.43689 96.4319 8.13557 96.6729 7.86438C96.8838 7.5932 97.1549 7.41241 97.4562 7.26175C97.7574 7.11109 98.0888 7.05082 98.4503 7.05082C98.9022 7.05082 99.2637 7.14122 99.565 7.35214C99.6553 7.41241 99.7457 7.5028 99.8361 7.5932C99.8963 7.65346 99.9265 7.71372 99.9566 7.77399C100.198 8.19583 100.288 8.79847 100.288 8.79847C100.318 9.00939 100.348 9.34084 100.348 9.55177V14.4633V15.2467C100.348 15.4576 100.529 15.6384 100.74 15.6384H102.638C102.849 15.6384 103.029 15.4576 103.029 15.2467L103.18 9.52163Z" fill="#686868"/>
<path d="M84.9241 9.52163V9.12992C84.9241 7.77399 84.5626 6.71937 83.8697 5.90582C83.8697 5.90582 83.8697 5.90582 83.8396 5.87568C83.1166 5.06212 82.0923 4.67041 80.7367 4.67041C80.3149 4.67041 79.9534 4.70054 79.5919 4.79094C79.2907 4.8512 79.0195 4.9416 78.7484 5.03199C78.6882 5.06212 78.5978 5.09226 78.5074 5.15252C78.0857 5.36344 77.694 5.63463 77.3024 6.02634C77.1819 6.08661 77.0614 6.11674 76.9409 6.08661C76.2179 5.18265 75.1936 4.70054 73.8681 4.70054C73.4463 4.70054 73.0547 4.76081 72.7534 4.8512C72.5426 4.91146 72.3317 5.00186 72.1509 5.06212C72.0606 5.09226 71.9702 5.15252 71.8798 5.18265C71.8497 5.21278 71.8195 5.21278 71.7894 5.24291C71.5785 5.36344 71.3978 5.5141 71.217 5.66476C71.217 5.66476 71.217 5.66476 71.1869 5.69489C71.0363 5.84555 71.0062 5.87568 71.0062 5.87568C70.8555 6.02634 70.735 5.99621 70.7049 5.78529L70.6748 5.36344C70.6748 5.15252 70.4639 4.97173 70.253 4.97173H68.4756C68.2647 4.97173 68.084 5.15252 68.084 5.36344V5.72502V14.4633V15.2467C68.084 15.4576 68.2647 15.6384 68.4756 15.6384H70.3735C70.5844 15.6384 70.7652 15.4576 70.7652 15.2467V10.2448C70.7652 10.0339 70.7652 9.67229 70.7953 9.46137C70.7953 9.46137 70.7953 9.34084 70.8254 9.19018C70.8555 9.03953 70.8857 8.88887 70.9158 8.76834C71.0363 8.43689 71.1869 8.1657 71.3677 7.92465C71.3978 7.89452 71.3978 7.89452 71.3978 7.86438C71.4279 7.83425 71.458 7.80412 71.4882 7.77399C71.6388 7.5932 71.8497 7.47267 72.0304 7.35214C72.0907 7.32201 72.1208 7.29188 72.1811 7.26175C72.2112 7.23162 72.2413 7.23162 72.2714 7.23162C72.5426 7.11109 72.8438 7.05082 73.1752 7.05082C73.6271 7.05082 73.9886 7.14122 74.2898 7.35214C74.3802 7.41241 74.4706 7.5028 74.561 7.5932C74.6212 7.65346 74.6513 7.71372 74.6815 7.77399C74.9225 8.19583 75.0129 8.79847 75.0129 8.79847C75.043 9.00939 75.0731 9.37098 75.0731 9.5819V14.4633V15.2467C75.0731 15.4576 75.2539 15.6384 75.4647 15.6384H77.3626C77.5735 15.6384 77.7543 15.4576 77.7543 15.2467V10.2448C77.7543 10.0339 77.7543 9.67229 77.7844 9.46137C77.7844 9.46137 77.7844 9.34084 77.8145 9.19018C77.8446 9.03953 77.8748 8.88887 77.9049 8.76834C78.0254 8.43689 78.176 8.13557 78.417 7.86438C78.6279 7.5932 78.899 7.41241 79.2003 7.26175C79.5015 7.11109 79.8329 7.05082 80.1944 7.05082C80.6463 7.05082 81.0078 7.14122 81.3091 7.35214C81.3995 7.41241 81.4898 7.5028 81.5802 7.5932C81.6405 7.65346 81.6706 7.71372 81.7007 7.77399C81.9417 8.19583 82.0321 8.79847 82.0321 8.79847C82.0622 9.00939 82.0923 9.34084 82.0923 9.55177V14.4633V15.2467C82.0923 15.4576 82.2731 15.6384 82.484 15.6384H84.3819C84.5928 15.6384 84.7735 15.4576 84.7735 15.2467L84.9241 9.52163Z" fill="#686868"/>
<path d="M45.009 12.5349H42.9299C42.6286 12.5349 42.3574 12.8061 42.3574 13.1375V15.1263C42.3574 15.4577 42.5985 15.7289 42.9299 15.7289H45.009C45.3103 15.7289 45.5815 15.4577 45.5815 15.1263V13.1375C45.5815 12.776 45.3405 12.5349 45.009 12.5349Z" fill="#F1B51C"/>
</g>
<defs>
<clipPath id="clip0_4136_11078">
<rect width="144" height="16" fill="white"/>
</clipPath>
</defs>
</svg>
