<svg width="165" height="70" viewBox="0 0 165 70" fill="none" xmlns="http://www.w3.org/2000/svg">
<path d="M89.6123 44.2634C88.0746 44.2634 86.585 44.0681 85.1915 43.6288C83.7979 43.1894 82.5966 42.506 81.7317 41.6273L81.4434 41.3344L84.5668 37.185L84.9512 37.5267C85.4798 38.0148 86.1525 38.4054 86.9694 38.6983C87.8344 39.04 88.6513 39.1864 89.4201 39.1864C90.1409 39.1864 90.7175 39.0888 91.15 38.9424C91.4864 38.7959 91.5825 38.6006 91.5825 38.2589C91.5825 38.1125 91.5344 38.0148 91.4864 37.9172C91.4383 37.8684 91.3422 37.7219 91.0539 37.5755C90.8137 37.429 90.4292 37.2826 89.9487 37.1361C89.4201 36.9897 88.7954 36.7944 88.0266 36.5503C87.3539 36.3551 86.6811 36.1598 86.0564 35.8669C85.3837 35.574 84.759 35.1835 84.2304 34.7441C83.7018 34.3048 83.2694 33.719 82.933 33.0844C82.5966 32.4498 82.4044 31.6687 82.4044 30.79C82.4044 29.9113 82.5966 29.0814 83.0291 28.3492C83.4135 27.6657 83.9902 27.0311 84.6629 26.4941C85.3356 26.006 86.1525 25.5666 87.0655 25.3225C87.9785 25.0785 88.9876 24.932 90.0448 24.932C91.5344 24.932 92.8319 25.1273 93.9851 25.469C95.0904 25.8107 96.1475 26.2989 97.1086 26.9823L97.493 27.2264L94.802 31.5222L94.4176 31.2782C93.889 30.9364 93.2643 30.5947 92.5916 30.3506C91.9669 30.1066 91.1981 29.9601 90.3812 29.9601C89.5162 29.9601 89.0838 30.1066 88.8915 30.253C88.6032 30.4483 88.5552 30.5947 88.5552 30.79C88.5552 30.9364 88.5552 31.2782 89.3721 31.5711C90.0929 31.8151 91.102 32.1569 92.3513 32.4986C94.1773 32.9867 95.5228 33.719 96.3397 34.6465C97.2047 35.574 97.6371 36.8432 97.6371 38.4054C97.6371 39.4305 97.3969 40.358 96.9164 41.1391C96.4358 41.8714 95.8592 42.506 95.0903 42.9941C94.3215 43.4823 93.5046 43.824 92.5436 44.0681C91.5825 44.1169 90.5734 44.2634 89.6123 44.2634ZM82.6927 41.1879C83.4135 41.8225 84.3746 42.3595 85.4798 42.7012C86.7772 43.0918 88.1707 43.287 89.6123 43.287C90.5253 43.287 91.3903 43.1894 92.2552 42.9941C93.1202 42.7989 93.889 42.4572 94.5137 42.0666C95.1384 41.6761 95.667 41.1391 96.0514 40.5045C96.4358 39.9187 96.628 39.1864 96.628 38.3077C96.628 36.9897 96.2917 36.0134 95.5709 35.2323C94.8501 34.4512 93.6488 33.8166 92.015 33.3773C90.7175 33.0356 89.7084 32.7427 88.9396 32.4498C87.7383 32.0104 87.498 31.2782 87.498 30.7412C87.498 30.2042 87.7383 29.716 88.2669 29.3743C88.6993 29.0814 89.3721 28.935 90.237 28.935C91.1981 28.935 92.063 29.0814 92.8319 29.4231C93.4085 29.6672 93.9371 29.9113 94.3696 30.2042L96.0514 27.5193C95.2826 27.0311 94.4657 26.6406 93.6007 26.3965C92.5916 26.1036 91.3422 25.9083 89.9487 25.9083C88.9876 25.9083 88.0746 26.0548 87.2577 26.2501C86.4409 26.4941 85.7201 26.8359 85.1434 27.2752C84.5668 27.7146 84.0863 28.2027 83.7979 28.7885C83.4616 29.3743 83.3174 30.0089 83.3174 30.7412C83.3174 31.4246 83.4616 32.0592 83.7018 32.5474C83.9902 33.0844 84.3265 33.5237 84.759 33.9143C85.1915 34.3048 85.7681 34.6465 86.3447 34.8906C86.9694 35.1835 87.5941 35.3788 88.2188 35.5252C89.0357 35.7693 89.6604 35.9646 90.189 36.111C90.7175 36.3063 91.15 36.4527 91.4864 36.648C91.8708 36.8432 92.1111 37.0873 92.2552 37.3314C92.3994 37.5755 92.4955 37.8684 92.4955 38.2101C92.4955 38.9912 92.1111 39.5282 91.4383 39.8211C90.8617 40.0163 90.189 40.1628 89.3721 40.1628C88.4591 40.1628 87.5461 39.9675 86.585 39.6258C85.8162 39.3329 85.1915 38.9912 84.6629 38.6006L82.6927 41.1879Z" fill="#4D4D4F"/>
<path d="M117.29 43.6776H111.187V33.3773C111.187 32.4986 110.995 31.8152 110.563 31.3758C110.13 30.9365 109.602 30.6924 108.881 30.6924C108.4 30.6924 107.968 30.79 107.631 30.9365C107.247 31.1317 106.959 31.327 106.718 31.6199C106.478 31.9128 106.286 32.2545 106.142 32.645C105.998 33.0356 105.95 33.4749 105.95 33.9631V43.6776H99.7988V18.293H105.902V26.543C106.334 26.2013 106.863 25.9084 107.439 25.7131C108.4 25.3226 109.409 25.1273 110.37 25.1273C112.437 25.1273 114.119 25.7619 115.368 27.0311C116.617 28.3004 117.242 30.1554 117.242 32.5962V43.6776H117.29ZM112.148 42.7013H116.329V32.5474C116.329 30.3995 115.8 28.7885 114.743 27.7146C113.638 26.6406 112.245 26.1036 110.419 26.1036C109.554 26.1036 108.689 26.2501 107.824 26.5918C107.007 26.9335 106.334 27.3729 105.805 27.9586L104.94 28.9838V19.2693H100.76V42.7013H104.989V33.9631C104.989 33.3773 105.085 32.8403 105.229 32.3521C105.373 31.864 105.661 31.3758 105.95 30.9853C106.286 30.5947 106.718 30.253 107.199 30.0578C107.679 29.8137 108.256 29.716 108.881 29.716C109.842 29.716 110.659 30.0578 111.235 30.6924C111.812 31.327 112.1 32.2545 112.1 33.3773V42.7013H112.148Z" fill="#4D4D4F"/>
<path d="M128.919 44.2634C127.526 44.2634 126.228 44.0193 125.027 43.4823C123.874 42.9941 122.816 42.2619 122 41.3832C121.183 40.5045 120.51 39.4793 120.029 38.3077C119.549 37.1361 119.309 35.8669 119.309 34.5489C119.309 33.2308 119.549 31.9616 120.029 30.79C120.51 29.6184 121.135 28.5932 122 27.7146C122.816 26.8359 123.874 26.1524 125.027 25.6643C126.18 25.1761 127.526 24.932 128.919 24.932C130.313 24.932 131.61 25.1761 132.763 25.6643C133.917 26.1524 134.926 26.8359 135.791 27.7146C136.608 28.5932 137.28 29.6184 137.761 30.79C138.241 31.9616 138.482 33.2308 138.482 34.5489C138.482 35.8669 138.241 37.1361 137.761 38.3077C137.28 39.4793 136.656 40.5045 135.791 41.3832C134.974 42.2619 133.965 42.9453 132.811 43.4823C131.61 44.0193 130.313 44.2634 128.919 44.2634ZM128.919 25.9083C127.622 25.9083 126.468 26.1524 125.411 26.5918C124.354 27.0311 123.441 27.6657 122.72 28.4468C121.951 29.2279 121.375 30.1554 120.942 31.1805C120.51 32.2057 120.318 33.3773 120.318 34.5489C120.318 35.7693 120.51 36.8921 120.942 37.9172C121.375 38.9424 121.951 39.8699 122.72 40.6509C123.441 41.432 124.354 42.0666 125.411 42.506C126.468 42.9453 127.622 43.1894 128.919 43.1894C130.169 43.1894 131.37 42.9453 132.427 42.506C133.484 42.0666 134.397 41.432 135.118 40.6509C135.887 39.8699 136.463 38.9424 136.896 37.9172C137.328 36.8921 137.521 35.7205 137.521 34.5489C137.521 33.3285 137.328 32.2057 136.896 31.1805C136.463 30.1554 135.887 29.2279 135.118 28.4468C134.397 27.6657 133.484 27.0311 132.427 26.5918C131.37 26.1524 130.169 25.9083 128.919 25.9083ZM128.919 39.6746C128.198 39.6746 127.526 39.5282 126.949 39.2353C126.372 38.9424 125.892 38.5518 125.507 38.0637C125.123 37.5755 124.835 37.0385 124.642 36.4527C124.45 35.8669 124.354 35.2323 124.354 34.5977C124.354 33.9631 124.45 33.3285 124.642 32.7427C124.835 32.1569 125.123 31.6199 125.507 31.1317C125.892 30.6435 126.372 30.253 126.949 29.9601C127.526 29.6672 128.198 29.5208 128.919 29.5208C129.64 29.5208 130.313 29.6672 130.841 29.9601C131.418 30.253 131.898 30.6435 132.283 31.1317C132.667 31.6199 132.956 32.1569 133.148 32.7427C133.34 33.3285 133.436 33.9631 133.436 34.5977C133.436 35.2323 133.34 35.8669 133.148 36.4527C132.956 37.0385 132.667 37.6243 132.283 38.1125C131.898 38.6006 131.418 38.9912 130.841 39.2841C130.265 39.5282 129.64 39.6746 128.919 39.6746ZM128.919 30.4971C128.343 30.4971 127.814 30.5947 127.381 30.8388C126.949 31.0829 126.565 31.3758 126.276 31.7175C125.988 32.108 125.748 32.5474 125.604 33.0356C125.459 33.5237 125.363 34.0607 125.363 34.5977C125.363 35.1347 125.459 35.6717 125.604 36.1598C125.748 36.648 125.988 37.0873 126.324 37.4779C126.613 37.8684 126.997 38.1613 127.43 38.4054C127.862 38.6495 128.391 38.7471 128.967 38.7471C129.544 38.7471 130.024 38.6495 130.505 38.4054C130.937 38.1613 131.322 37.8684 131.61 37.4779C131.898 37.0873 132.139 36.648 132.283 36.1598C132.427 35.6717 132.523 35.1347 132.523 34.5977C132.523 34.0607 132.427 33.5237 132.283 33.0356C132.139 32.5474 131.898 32.108 131.61 31.7175C131.322 31.327 130.937 31.0341 130.505 30.8388C129.976 30.5947 129.496 30.4971 128.919 30.4971Z" fill="#4D4D4F"/>
<path d="M146.698 51H140.596V25.5178H146.458L146.506 25.9083C146.554 26.2012 146.602 26.4453 146.602 26.7382C147.035 26.3477 147.563 26.006 148.14 25.7619C149.053 25.3714 150.014 25.1761 151.023 25.1761C152.321 25.1761 153.474 25.4202 154.483 25.9572C155.492 26.4941 156.309 27.1776 156.982 28.0563C157.654 28.935 158.135 29.9113 158.471 31.0341C158.808 32.1569 158.952 33.2796 158.952 34.4512C158.952 36.111 158.664 37.5755 158.135 38.7959C157.558 40.0163 156.838 41.0415 155.973 41.8714C155.108 42.6524 154.099 43.287 152.945 43.6287C151.84 44.0193 150.735 44.2145 149.678 44.2145C148.813 44.2145 148.092 44.1169 147.515 43.9705C147.227 43.8728 146.939 43.824 146.698 43.7264V51ZM141.557 50.0237H145.737V42.4083L146.362 42.6036C146.795 42.7501 147.275 42.8965 147.756 43.0429C148.236 43.1894 148.861 43.2382 149.63 43.2382C150.591 43.2382 151.6 43.0429 152.609 42.7012C153.618 42.3595 154.483 41.8225 155.3 41.0903C156.069 40.4069 156.741 39.4793 157.222 38.3566C157.702 37.2338 157.991 35.9157 157.991 34.4024C157.991 33.3285 157.847 32.2545 157.558 31.2782C157.27 30.3018 156.838 29.3743 156.213 28.6421C155.636 27.861 154.915 27.2752 154.05 26.8359C153.186 26.3965 152.176 26.1524 151.023 26.1524C150.158 26.1524 149.293 26.3477 148.524 26.6894C147.756 27.0311 147.083 27.5193 146.602 28.1539L145.833 29.1302L145.689 26.9335C145.689 26.787 145.641 26.5918 145.641 26.4453H141.557V50.0237ZM149.197 39.8211C147.756 39.8211 146.698 39.577 145.93 39.04L145.737 38.8935V34.0607C145.737 33.5237 145.833 32.9867 145.978 32.4986C146.17 31.9616 146.41 31.5222 146.746 31.0829C147.083 30.6435 147.515 30.3506 148.044 30.0577C148.572 29.8137 149.149 29.6672 149.774 29.6672C150.495 29.6672 151.119 29.8137 151.648 30.1066C152.176 30.3995 152.561 30.7412 152.897 31.2293C153.186 31.6687 153.426 32.2057 153.57 32.7915C153.714 33.3773 153.762 33.9631 153.762 34.5489C153.762 36.111 153.33 37.3802 152.561 38.3077C151.744 39.3329 150.591 39.8211 149.197 39.8211ZM146.698 38.3566C147.275 38.6983 148.14 38.8447 149.197 38.8447C150.35 38.8447 151.215 38.4542 151.84 37.7219C152.513 36.9409 152.801 35.9157 152.801 34.5977C152.801 34.0607 152.753 33.5725 152.609 33.0844C152.513 32.5962 152.321 32.2057 152.08 31.8151C151.84 31.4734 151.552 31.2293 151.167 30.9853C150.783 30.79 150.302 30.6924 149.774 30.6924C149.293 30.6924 148.813 30.79 148.428 30.9853C148.044 31.1805 147.707 31.4246 147.467 31.7175C147.227 32.0592 146.987 32.4009 146.891 32.7915C146.746 33.182 146.698 33.6214 146.698 34.0607V38.3566Z" fill="#4D4D4F"/>
<path d="M6.14258 27.2752C6.14258 26.5917 6.71921 26.0059 7.39195 26.0059H9.1699C9.84264 26.0059 10.4193 26.5917 10.4193 27.2752V42.0666C10.4193 42.75 9.84264 43.3358 9.1699 43.3358H7.39195C6.71921 43.3358 6.14258 42.75 6.14258 42.0666V27.2752Z" fill="#4D4D4F"/>
<path d="M14.1211 26.6405C14.1211 26.2988 14.4094 26.0059 14.7458 26.0059H17.5809C17.9173 26.0059 18.2536 26.2988 18.2536 26.6405L18.3017 27.3239C18.3017 27.6657 18.5419 27.7633 18.7822 27.5192C18.7822 27.5192 18.8303 27.4704 19.1186 27.2263C19.4069 26.9334 19.7913 26.6893 20.2238 26.4452C20.6563 26.2012 21.1368 26.0059 21.6654 25.8594C22.194 25.713 22.8186 25.6154 23.4914 25.6154C25.6057 25.6154 27.2395 26.25 28.3928 27.568C29.498 28.8861 29.9785 32.1568 29.9785 32.1568C30.0266 32.4985 30.0746 33.0843 30.0746 33.426V42.7012C30.0746 43.0429 29.7863 43.3358 29.4499 43.3358H26.4226C26.0862 43.3358 25.7979 43.0429 25.7979 42.7012V33.4748C25.7979 33.1331 25.7499 32.5473 25.7018 32.2056C25.7018 32.2056 25.5096 30.8875 24.8849 30.2529C24.3083 29.6671 23.5394 29.3254 22.5784 29.3254C22.0017 29.3254 21.4732 29.423 20.9446 29.6671C20.416 29.9112 19.9835 30.2529 19.6472 30.6435C19.2627 31.0828 18.9744 31.571 18.7822 32.108C18.59 32.6449 18.5419 33.2796 18.5419 33.2796C18.4939 33.6213 18.4939 34.2071 18.4939 34.5488V42.6523C18.4939 42.9941 18.2056 43.287 17.8692 43.287H14.8419C14.5055 43.287 14.2172 42.9941 14.2172 42.6523V26.6405H14.1211Z" fill="#4D4D4F"/>
<path d="M33.6312 30.2041C33.6312 29.8624 33.3429 29.5695 33.0065 29.5695H31.3727C31.0364 29.5695 30.748 29.2766 30.748 28.9349V26.6893C30.748 26.3476 31.0364 26.0547 31.3727 26.0547H33.0065C33.3429 26.0547 33.6312 25.8107 33.6312 25.5178C33.6312 25.2249 33.6793 24.6879 33.6793 24.3462C33.6793 24.3462 33.8234 22.6864 34.2078 21.8077C34.5923 20.929 35.0728 20.1967 35.6975 19.6598C36.3222 19.1228 36.9949 18.6834 37.7157 18.4393C38.4845 18.1464 39.2534 18 39.9742 18C40.743 18 41.608 18.0976 42.569 18.3417C43.482 18.537 44.7794 19.4645 44.7794 19.4645C45.0678 19.6598 45.1158 20.0503 44.9236 20.3432L43.6742 22.1982C43.482 22.4911 43.0495 22.5888 42.7612 22.3935C42.7612 22.3935 42.4729 22.247 42.0404 22.0518C41.608 21.8565 41.1274 21.8077 40.695 21.8077C39.83 21.8077 39.1573 22.1006 38.6767 22.6376C38.1962 23.1746 38.004 24.395 38.004 24.395C37.956 24.7367 37.9079 25.2737 37.9079 25.5178C37.9079 25.8107 38.1962 26.0059 38.5326 26.0059H41.656C41.9924 26.0059 42.2807 26.2988 42.2807 26.6405V28.8861C42.2807 29.2278 41.9924 29.5207 41.656 29.5207H38.5326C38.1962 29.5207 37.9079 29.8136 37.9079 30.1553V42.6524C37.9079 42.9941 37.6196 43.287 37.2832 43.287H34.2559C33.9195 43.287 33.6312 42.9941 33.6312 42.6524V30.2041Z" fill="#4D4D4F"/>
<path d="M45.1152 26.6405C45.1152 26.2988 45.4035 26.0059 45.7399 26.0059H48.575C48.9114 26.0059 49.1997 26.2988 49.2478 26.6405L49.2958 27.5192C49.2958 27.8609 49.5361 27.9586 49.7283 27.6657C49.7283 27.6657 49.7763 27.6168 50.0647 27.3239C50.353 27.031 50.7374 26.7381 51.1218 26.4941C51.5062 26.25 52.0348 26.0547 52.5634 25.8594C53.092 25.6642 53.7167 25.6154 54.4375 25.6154C54.8699 25.6154 55.2063 25.6642 55.5427 25.6642C55.879 25.713 55.9271 25.713 55.9271 25.713C56.2635 25.8106 56.4557 26.2012 56.4076 26.5429L55.7829 29.3742C55.6868 29.7159 55.3985 29.9112 55.0622 29.8136C55.0622 29.8136 55.0622 29.8136 54.7738 29.7648C54.4855 29.7159 54.1011 29.6671 53.7167 29.6671C53.14 29.6671 52.5634 29.7648 52.0348 29.96C51.5063 30.1553 51.0257 30.4482 50.6413 30.7899C50.2569 31.1804 49.9205 31.6198 49.7283 32.108C49.488 32.6449 49.44 33.1819 49.44 33.1819C49.3919 33.5236 49.3919 34.1094 49.3919 34.4512V42.5059C49.3919 42.8476 49.1036 43.1405 48.7672 43.1405H45.7399C45.4035 43.1405 45.1152 42.8476 45.1152 42.5059V26.6405Z" fill="#4D4D4F"/>
<path d="M68.0354 42.3595C68.0354 42.0178 67.7951 41.9201 67.5068 42.1642C67.5068 42.1642 66.834 42.7988 65.873 43.2382C64.9119 43.6775 63.8548 43.9216 62.7015 43.9216C61.9807 43.9216 61.308 43.824 60.5872 43.5799C59.9144 43.3358 59.2417 42.9941 58.7131 42.5547C58.1365 42.1154 57.704 41.5296 57.3196 40.7973C56.9832 40.0651 56.791 39.2352 56.791 38.2589C56.791 37.2825 56.9832 36.4038 57.3196 35.6228C57.704 34.8417 58.1845 34.2071 58.8573 33.6701C59.53 33.1331 60.2989 32.7426 61.2119 32.4497C62.1249 32.1568 63.134 32.0592 64.2872 32.0592C64.6236 32.0592 65.008 32.0592 65.3925 32.0592C65.8249 32.0592 66.2093 32.108 66.5938 32.108C67.0262 32.1568 67.3146 32.1568 67.3146 32.1568C67.6509 32.1568 67.9392 32.108 67.9392 32.0104C67.9392 31.9127 67.8912 31.5222 67.7951 31.1805C67.7951 31.1805 67.6029 30.253 66.9301 29.7648C66.2574 29.2766 65.3444 29.0325 64.2872 29.0325C63.0859 29.0325 62.1249 29.179 61.356 29.5207C60.6352 29.8624 59.9625 30.253 59.9625 30.253C59.6742 30.4482 59.2417 30.3506 59.0495 30.0577L57.8001 28.1538C57.6079 27.8609 57.704 27.4704 57.9923 27.2751C57.9923 27.2751 58.1845 27.1287 58.617 26.8846C59.0495 26.6405 59.5781 26.3964 60.1547 26.2012C60.7313 26.0059 61.4041 25.8106 62.1729 25.6642C62.9418 25.5177 63.8067 25.4689 64.8639 25.4689C65.9691 25.4689 66.9301 25.6154 67.8431 25.9083C68.7081 26.2012 69.4769 26.6405 70.1016 27.2263C70.7263 27.7633 71.2068 28.4467 71.5432 29.2278C71.8796 30.0089 71.9757 31.1317 71.9757 31.1317C72.0237 31.4734 72.0237 32.0592 72.0237 32.4009V42.75C72.0237 43.0917 71.7354 43.3846 71.399 43.3846H68.66C68.3237 43.3846 67.9873 43.0917 67.9873 42.75L68.0354 42.3595ZM67.9873 36.1109C67.9873 35.7692 67.699 35.4275 67.3626 35.4275C67.3626 35.4275 67.1224 35.4275 66.7379 35.3787C66.4016 35.3299 66.0171 35.3299 65.6808 35.3299C65.2963 35.3299 64.96 35.3299 64.7197 35.3299C63.3262 35.3299 62.3651 35.6228 61.7885 36.1598C61.2119 36.6967 60.9716 37.3314 60.9716 38.0636C60.9716 38.7959 61.2119 39.3817 61.7404 39.821C62.269 40.2604 63.0379 40.4556 64.047 40.4556C64.5756 40.4556 65.0561 40.358 65.5366 40.2115C66.0171 40.0163 66.4496 39.821 66.786 39.5281C67.1704 39.2352 67.4587 38.8935 67.699 38.503C67.9392 38.1124 67.9392 37.8683 67.9392 37.8683C67.9873 37.5266 68.0354 36.9408 68.0354 36.5991V36.1109H67.9873Z" fill="#4D4D4F"/>
<path d="M6 19.9526C6 19.2692 6.57663 18.6834 7.24937 18.6834H9.31564C9.98838 18.6834 10.565 19.2692 10.565 19.9526V21.9541C10.565 22.6376 9.98838 23.2234 9.31564 23.2234H7.24937C6.57663 23.2722 6 22.6864 6 21.9541V19.9526Z" fill="#4D4D4F"/>
<path d="M77.7911 38.3077H74.4755C73.995 38.3077 73.5625 38.747 73.5625 39.284V42.5059C73.5625 43.0429 73.9469 43.4822 74.4755 43.4822H77.7911C78.2717 43.4822 78.7041 43.0429 78.7041 42.5059V39.284C78.7041 38.6982 78.3197 38.3077 77.7911 38.3077Z" fill="#F1B51C"/>
</svg>
