<svg width="105" height="44" viewBox="0 0 105 44" fill="none" xmlns="http://www.w3.org/2000/svg">
<path d="M57.0266 27.8226C56.048 27.8226 55.1001 27.6999 54.2133 27.4237C53.3265 27.1476 52.562 26.718 52.0116 26.1657L51.8281 25.9816L53.8158 23.3734L54.0604 23.5882C54.3968 23.895 54.8249 24.1405 55.3447 24.3246C55.8951 24.5394 56.415 24.6314 56.9043 24.6314C57.3629 24.6314 57.7299 24.5701 58.0051 24.478C58.2191 24.386 58.2803 24.2632 58.2803 24.0484C58.2803 23.9564 58.2497 23.895 58.2191 23.8336C58.1886 23.803 58.1274 23.7109 57.9439 23.6188C57.791 23.5268 57.5464 23.4347 57.2406 23.3427C56.9042 23.2506 56.5067 23.1279 56.0175 22.9745C55.5893 22.8517 55.1612 22.729 54.7637 22.5449C54.3356 22.3608 53.9381 22.1153 53.6017 21.8391C53.2653 21.563 52.9901 21.1948 52.7761 20.7959C52.562 20.397 52.4397 19.906 52.4397 19.3537C52.4397 18.8013 52.562 18.2797 52.8372 17.8194C53.0819 17.3899 53.4488 16.991 53.8769 16.6534C54.305 16.3466 54.8249 16.0704 55.4059 15.917C55.9869 15.7636 56.629 15.6715 57.3018 15.6715C58.2497 15.6715 59.0754 15.7942 59.8093 16.009C60.5126 16.2238 61.1853 16.5307 61.7969 16.9603L62.0415 17.1137L60.3291 19.8139L60.0845 19.6605C59.7481 19.4457 59.3506 19.2309 58.9225 19.0775C58.5249 18.9241 58.0357 18.832 57.5158 18.832C56.9654 18.832 56.6902 18.9241 56.5679 19.0161C56.3844 19.1389 56.3538 19.2309 56.3538 19.3537C56.3538 19.4457 56.3538 19.6605 56.8737 19.8446C57.3324 19.9981 57.9745 20.2128 58.7696 20.4276C59.9316 20.7345 60.7878 21.1948 61.3076 21.7778C61.8581 22.3608 62.1333 23.1586 62.1333 24.1405C62.1333 24.7849 61.9804 25.3679 61.6746 25.8588C61.3688 26.3191 61.0018 26.718 60.5126 27.0248C60.0233 27.3317 59.5035 27.5465 58.8919 27.6999C58.2803 27.7306 57.6381 27.8226 57.0266 27.8226ZM52.6232 25.8895C53.0819 26.2884 53.6934 26.6259 54.3968 26.8407C55.2224 27.0862 56.1092 27.209 57.0266 27.209C57.6076 27.209 58.158 27.1476 58.7084 27.0248C59.2588 26.9021 59.7481 26.6873 60.1456 26.4418C60.5432 26.1964 60.8795 25.8588 61.1242 25.4599C61.3688 25.0917 61.4911 24.6314 61.4911 24.0791C61.4911 23.2506 61.2771 22.6369 60.8184 22.146C60.3597 21.655 59.5952 21.2561 58.5555 20.98C57.7299 20.7652 57.0877 20.5811 56.5985 20.397C55.834 20.1208 55.6811 19.6605 55.6811 19.323C55.6811 18.9855 55.834 18.6786 56.1704 18.4638C56.4456 18.2797 56.8737 18.1877 57.4241 18.1877C58.0357 18.1877 58.5861 18.2797 59.0754 18.4945C59.4423 18.6479 59.7787 18.8013 60.0539 18.9855L61.1242 17.2978C60.6349 16.991 60.1151 16.7455 59.5646 16.5921C58.9225 16.4079 58.1274 16.2852 57.2406 16.2852C56.629 16.2852 56.048 16.3773 55.5282 16.5C55.0083 16.6534 54.5497 16.8682 54.1827 17.1444C53.8158 17.4205 53.51 17.7274 53.3265 18.0956C53.1124 18.4638 53.0207 18.8627 53.0207 19.323C53.0207 19.7526 53.1124 20.1515 53.2653 20.4583C53.4488 20.7959 53.6629 21.072 53.9381 21.3175C54.2133 21.563 54.5802 21.7778 54.9472 21.9312C55.3447 22.1153 55.7422 22.238 56.1398 22.3301C56.6596 22.4835 57.0571 22.6063 57.3935 22.6983C57.7299 22.821 58.0051 22.9131 58.2191 23.0358C58.4638 23.1586 58.6167 23.312 58.7084 23.4654C58.8001 23.6188 58.8613 23.803 58.8613 24.0177C58.8613 24.5087 58.6167 24.8462 58.1886 25.0303C57.8216 25.1531 57.3935 25.2451 56.8737 25.2451C56.2927 25.2451 55.7117 25.1224 55.1001 24.9076C54.6108 24.7235 54.2133 24.5087 53.8769 24.2632L52.6232 25.8895Z" fill="#4D4D4F"/>
<path d="M74.6406 27.4545H70.757V20.98C70.757 20.4277 70.6347 19.9981 70.3595 19.7219C70.0843 19.4458 69.7479 19.2923 69.2892 19.2923C68.9834 19.2923 68.7082 19.3537 68.4942 19.4458C68.2495 19.5685 68.0661 19.6912 67.9132 19.8753C67.7603 20.0594 67.6379 20.2742 67.5462 20.5197C67.4545 20.7652 67.4239 21.0414 67.4239 21.3482V27.4545H63.5098V11.4984H67.3933V16.6841C67.6685 16.4693 68.0049 16.2852 68.3718 16.1625C68.9834 15.917 69.6256 15.7943 70.2372 15.7943C71.5521 15.7943 72.6223 16.1932 73.4174 16.991C74.2124 17.7888 74.61 18.9548 74.61 20.489V27.4545H74.6406ZM71.3686 26.8408H74.029V20.4583C74.029 19.1082 73.6926 18.0956 73.0199 17.4206C72.3165 16.7455 71.4297 16.408 70.2677 16.408C69.7173 16.408 69.1669 16.5 68.6165 16.7148C68.0966 16.9296 67.6685 17.2058 67.3322 17.574L66.7817 18.2184V12.1121H64.1213V26.8408H66.8123V21.3482C66.8123 20.98 66.8735 20.6425 66.9652 20.3356C67.0569 20.0288 67.2404 19.7219 67.4239 19.4764C67.6379 19.231 67.9132 19.0162 68.2189 18.8934C68.5247 18.74 68.8917 18.6786 69.2892 18.6786C69.9008 18.6786 70.4206 18.8934 70.7876 19.2923C71.1545 19.6912 71.338 20.2742 71.338 20.98V26.8408H71.3686Z" fill="#4D4D4F"/>
<path d="M82.0396 27.8226C81.1528 27.8226 80.3272 27.6692 79.5627 27.3317C78.8288 27.0248 78.1561 26.5646 77.6363 26.0123C77.1164 25.4599 76.6883 24.8155 76.3825 24.0791C76.0767 23.3427 75.9238 22.5449 75.9238 21.7164C75.9238 20.8879 76.0767 20.0901 76.3825 19.3537C76.6883 18.6172 77.0858 17.9729 77.6363 17.4205C78.1561 16.8682 78.8288 16.4386 79.5627 16.1318C80.2966 15.8249 81.1528 15.6715 82.0396 15.6715C82.9264 15.6715 83.7521 15.8249 84.486 16.1318C85.2198 16.4386 85.862 16.8682 86.4124 17.4205C86.9323 17.9729 87.3604 18.6172 87.6662 19.3537C87.972 20.0901 88.1249 20.8879 88.1249 21.7164C88.1249 22.5449 87.972 23.3427 87.6662 24.0791C87.3604 24.8155 86.9629 25.4599 86.4124 26.0123C85.8926 26.5646 85.2504 26.9942 84.5165 27.3317C83.7521 27.6692 82.9264 27.8226 82.0396 27.8226ZM82.0396 16.2852C81.214 16.2852 80.4801 16.4386 79.8074 16.7148C79.1346 16.991 78.5536 17.3899 78.0949 17.8808C77.6057 18.3718 77.2387 18.9548 76.9635 19.5992C76.6883 20.2435 76.566 20.98 76.566 21.7164C76.566 22.4835 76.6883 23.1893 76.9635 23.8336C77.2387 24.478 77.6057 25.061 78.0949 25.552C78.5536 26.0429 79.1346 26.4418 79.8074 26.718C80.4801 26.9942 81.214 27.1476 82.0396 27.1476C82.8347 27.1476 83.5992 26.9942 84.2719 26.718C84.9446 26.4418 85.5256 26.0429 85.9843 25.552C86.4736 25.061 86.8405 24.478 87.1157 23.8336C87.391 23.1893 87.5133 22.4528 87.5133 21.7164C87.5133 20.9493 87.391 20.2435 87.1157 19.5992C86.8405 18.9548 86.4736 18.3718 85.9843 17.8808C85.5256 17.3899 84.9446 16.991 84.2719 16.7148C83.5992 16.4386 82.8347 16.2852 82.0396 16.2852ZM82.0396 24.9383C81.5809 24.9383 81.1528 24.8462 80.7859 24.6621C80.4189 24.478 80.1132 24.2325 79.8685 23.9257C79.6239 23.6188 79.4404 23.2813 79.3181 22.9131C79.1958 22.5449 79.1346 22.146 79.1346 21.7471C79.1346 21.3482 79.1958 20.9493 79.3181 20.5811C79.4404 20.2128 79.6239 19.8753 79.8685 19.5685C80.1132 19.2616 80.4189 19.0161 80.7859 18.832C81.1528 18.6479 81.5809 18.5559 82.0396 18.5559C82.4983 18.5559 82.9264 18.6479 83.2628 18.832C83.6297 19.0161 83.9355 19.2616 84.1802 19.5685C84.4248 19.8753 84.6083 20.2128 84.7306 20.5811C84.8529 20.9493 84.9141 21.3482 84.9141 21.7471C84.9141 22.146 84.8529 22.5449 84.7306 22.9131C84.6083 23.2813 84.4248 23.6495 84.1802 23.9564C83.9355 24.2632 83.6297 24.5087 83.2628 24.6928C82.8958 24.8462 82.4983 24.9383 82.0396 24.9383ZM82.0396 19.1696C81.6727 19.1696 81.3363 19.2309 81.0611 19.3844C80.7859 19.5378 80.5413 19.7219 80.3578 19.9367C80.1743 20.1822 80.0214 20.4583 79.9297 20.7652C79.8379 21.072 79.7768 21.4095 79.7768 21.7471C79.7768 22.0846 79.8379 22.4221 79.9297 22.729C80.0214 23.0358 80.1743 23.312 80.3884 23.5575C80.5718 23.803 80.8165 23.9871 81.0917 24.1405C81.3669 24.2939 81.7033 24.3553 82.0702 24.3553C82.4372 24.3553 82.743 24.2939 83.0487 24.1405C83.324 23.9871 83.5686 23.803 83.7521 23.5575C83.9355 23.312 84.0884 23.0358 84.1802 22.729C84.2719 22.4221 84.3331 22.0846 84.3331 21.7471C84.3331 21.4095 84.2719 21.072 84.1802 20.7652C84.0884 20.4583 83.9355 20.1822 83.7521 19.9367C83.5686 19.6912 83.324 19.5071 83.0487 19.3844C82.7124 19.2309 82.4066 19.1696 82.0396 19.1696Z" fill="#4D4D4F"/>
<path d="M93.3542 32.0572H89.4707V16.0397H93.2013L93.2319 16.2852C93.2625 16.4693 93.2931 16.6228 93.2931 16.8069C93.5683 16.5614 93.9047 16.3466 94.2716 16.1932C94.8526 15.9477 95.4642 15.825 96.1063 15.825C96.932 15.825 97.6659 15.9784 98.308 16.3159C98.9502 16.6534 99.47 17.083 99.8981 17.6353C100.326 18.1877 100.632 18.8014 100.846 19.5071C101.06 20.2129 101.152 20.9186 101.152 21.655C101.152 22.6983 100.968 23.6189 100.632 24.386C100.265 25.1531 99.8064 25.7975 99.256 26.3191C98.7056 26.8101 98.0634 27.209 97.3295 27.4238C96.6262 27.6692 95.9229 27.792 95.2501 27.792C94.6997 27.792 94.241 27.7306 93.8741 27.6386C93.6906 27.5772 93.5071 27.5465 93.3542 27.4851V32.0572ZM90.0823 31.4435H92.7427V26.6567L93.1402 26.7794C93.4154 26.8714 93.7212 26.9635 94.027 27.0556C94.3328 27.1476 94.7303 27.1783 95.2196 27.1783C95.8311 27.1783 96.4733 27.0556 97.1155 26.8408C97.7576 26.626 98.308 26.2884 98.8279 25.8282C99.3171 25.3986 99.7453 24.8156 100.051 24.1098C100.357 23.4041 100.54 22.5756 100.54 21.6244C100.54 20.9493 100.449 20.2742 100.265 19.6605C100.082 19.0468 99.8064 18.4638 99.4089 18.0036C99.0419 17.5126 98.5832 17.1444 98.0328 16.8682C97.4824 16.5921 96.8402 16.4386 96.1063 16.4386C95.5559 16.4386 95.0055 16.5614 94.5162 16.7762C94.027 16.991 93.5989 17.2978 93.2931 17.6967L92.8038 18.3104L92.7121 16.9296C92.7121 16.8375 92.6815 16.7148 92.6815 16.6228H90.0823V31.4435ZM94.9443 25.0304C94.027 25.0304 93.3542 24.8769 92.865 24.5394L92.7427 24.4474V21.4096C92.7427 21.072 92.8038 20.7345 92.8955 20.4277C93.0179 20.0901 93.1708 19.814 93.3848 19.5378C93.5989 19.2616 93.8741 19.0775 94.2104 18.8934C94.5468 18.74 94.9138 18.6479 95.3113 18.6479C95.77 18.6479 96.1675 18.74 96.5039 18.9241C96.8402 19.1082 97.0849 19.323 97.2989 19.6299C97.4824 19.906 97.6353 20.2435 97.727 20.6118C97.8188 20.98 97.8493 21.3482 97.8493 21.7164C97.8493 22.6983 97.5741 23.4961 97.0849 24.0791C96.565 24.7235 95.8311 25.0304 94.9443 25.0304ZM93.3542 24.1098C93.7212 24.3246 94.2716 24.4167 94.9443 24.4167C95.6782 24.4167 96.2287 24.1712 96.6262 23.7109C97.0543 23.22 97.2378 22.5756 97.2378 21.7471C97.2378 21.4096 97.2072 21.1027 97.1155 20.7959C97.0543 20.489 96.932 20.2435 96.7791 19.9981C96.6262 19.7833 96.4427 19.6299 96.1981 19.4764C95.9535 19.3537 95.6477 19.2923 95.3113 19.2923C95.0055 19.2923 94.6997 19.3537 94.4551 19.4764C94.2104 19.5992 93.9964 19.7526 93.8435 19.9367C93.6906 20.1515 93.5377 20.3663 93.4766 20.6118C93.3848 20.8572 93.3542 21.1334 93.3542 21.4096V24.1098Z" fill="#4D4D4F"/>
<path d="M3.91016 17.1444C3.91016 16.7148 4.2771 16.3466 4.70521 16.3466H5.83664C6.26474 16.3466 6.63169 16.7148 6.63169 17.1444V26.4418C6.63169 26.8714 6.26474 27.2396 5.83664 27.2396H4.70521C4.2771 27.2396 3.91016 26.8714 3.91016 26.4418V17.1444Z" fill="#4D4D4F"/>
<path d="M8.98633 16.7455C8.98633 16.5307 9.1698 16.3466 9.38386 16.3466H11.188C11.4021 16.3466 11.6161 16.5307 11.6161 16.7455L11.6467 17.175C11.6467 17.3898 11.7996 17.4512 11.9525 17.2978C11.9525 17.2978 11.9831 17.2671 12.1665 17.1137C12.35 16.9296 12.5947 16.7761 12.8699 16.6227C13.1451 16.4693 13.4509 16.3466 13.7872 16.2545C14.1236 16.1624 14.5211 16.1011 14.9492 16.1011C16.2947 16.1011 17.3344 16.5 18.0683 17.3285C18.7716 18.1569 19.0774 20.2128 19.0774 20.2128C19.108 20.4276 19.1386 20.7958 19.1386 21.0106V26.8407C19.1386 27.0555 18.9551 27.2396 18.741 27.2396H16.8146C16.6005 27.2396 16.417 27.0555 16.417 26.8407V21.0413C16.417 20.8265 16.3865 20.4583 16.3559 20.2435C16.3559 20.2435 16.2336 19.415 15.836 19.0161C15.4691 18.6479 14.9798 18.4331 14.3682 18.4331C14.0013 18.4331 13.6649 18.4945 13.3286 18.6479C12.9922 18.8013 12.717 19.0161 12.5029 19.2616C12.2583 19.5378 12.0748 19.8446 11.9525 20.1821C11.8302 20.5197 11.7996 20.9186 11.7996 20.9186C11.769 21.1334 11.769 21.5016 11.769 21.7164V26.81C11.769 27.0248 11.5855 27.2089 11.3715 27.2089H9.44501C9.23096 27.2089 9.04749 27.0248 9.04749 26.81V16.7455H8.98633Z" fill="#4D4D4F"/>
<path d="M21.4011 18.9854C21.4011 18.7707 21.2177 18.5865 21.0036 18.5865H19.9639C19.7499 18.5865 19.5664 18.4024 19.5664 18.1876V16.7761C19.5664 16.5614 19.7499 16.3772 19.9639 16.3772H21.0036C21.2177 16.3772 21.4011 16.2238 21.4011 16.0397C21.4011 15.8556 21.4317 15.5181 21.4317 15.3033C21.4317 15.3033 21.5235 14.26 21.7681 13.7077C22.0127 13.1554 22.3185 12.6951 22.716 12.3576C23.1136 12.02 23.5417 11.7439 24.0004 11.5904C24.4896 11.4063 24.9789 11.3143 25.4376 11.3143C25.9268 11.3143 26.4773 11.3756 27.0888 11.5291C27.6698 11.6518 28.4955 12.2348 28.4955 12.2348C28.679 12.3576 28.7095 12.603 28.5872 12.7871L27.7922 13.9532C27.6698 14.1373 27.3946 14.1986 27.2112 14.0759C27.2112 14.0759 27.0277 13.9838 26.7525 13.8611C26.4773 13.7384 26.1715 13.7077 25.8963 13.7077C25.3458 13.7077 24.9177 13.8918 24.6119 14.2293C24.3062 14.5668 24.1838 15.334 24.1838 15.334C24.1533 15.5488 24.1227 15.8863 24.1227 16.0397C24.1227 16.2238 24.3062 16.3466 24.5202 16.3466H26.5078C26.7219 16.3466 26.9054 16.5307 26.9054 16.7455V18.157C26.9054 18.3718 26.7219 18.5559 26.5078 18.5559H24.5202C24.3062 18.5559 24.1227 18.74 24.1227 18.9548V26.81C24.1227 27.0248 23.9392 27.2089 23.7252 27.2089H21.7987C21.5846 27.2089 21.4011 27.0248 21.4011 26.81V18.9854Z" fill="#4D4D4F"/>
<path d="M28.709 16.7455C28.709 16.5307 28.8925 16.3466 29.1065 16.3466H30.9107C31.1247 16.3466 31.3082 16.5307 31.3388 16.7455L31.3694 17.2978C31.3694 17.5126 31.5223 17.5739 31.6446 17.3898C31.6446 17.3898 31.6751 17.3591 31.8586 17.175C32.0421 16.9909 32.2867 16.8068 32.5314 16.6534C32.776 16.5 33.1124 16.3772 33.4487 16.2545C33.7851 16.1318 34.1826 16.1011 34.6413 16.1011C34.9165 16.1011 35.1306 16.1318 35.3446 16.1318C35.5587 16.1624 35.5893 16.1624 35.5893 16.1624C35.8033 16.2238 35.9256 16.4693 35.8951 16.6841L35.4975 18.4638C35.4364 18.6786 35.2529 18.8013 35.0388 18.74C35.0388 18.74 35.0388 18.74 34.8554 18.7093C34.6719 18.6786 34.4273 18.6479 34.1826 18.6479C33.8157 18.6479 33.4487 18.7093 33.1124 18.832C32.776 18.9548 32.4702 19.1389 32.2256 19.3537C31.9809 19.5991 31.7669 19.8753 31.6446 20.1821C31.4917 20.5197 31.4611 20.8572 31.4611 20.8572C31.4305 21.072 31.4305 21.4402 31.4305 21.655V26.718C31.4305 26.9328 31.247 27.1169 31.033 27.1169H29.1065C28.8925 27.1169 28.709 26.9328 28.709 26.718V16.7455Z" fill="#4D4D4F"/>
<path d="M43.2961 26.6259C43.2961 26.4111 43.1432 26.3498 42.9597 26.5032C42.9597 26.5032 42.5316 26.9021 41.9201 27.1783C41.3085 27.4544 40.6357 27.6078 39.9018 27.6078C39.4432 27.6078 39.0151 27.5465 38.5564 27.3931C38.1283 27.2396 37.7002 27.0248 37.3638 26.7487C36.9968 26.4725 36.7216 26.1043 36.477 25.644C36.2629 25.1838 36.1406 24.6621 36.1406 24.0484C36.1406 23.4347 36.2629 22.8824 36.477 22.3914C36.7216 21.9005 37.0274 21.5016 37.4555 21.1641C37.8836 20.8265 38.3729 20.5811 38.9539 20.3969C39.5349 20.2128 40.1771 20.1515 40.911 20.1515C41.125 20.1515 41.3696 20.1515 41.6143 20.1515C41.8895 20.1515 42.1341 20.1822 42.3787 20.1822C42.654 20.2128 42.8374 20.2128 42.8374 20.2128C43.0515 20.2128 43.235 20.1822 43.235 20.1208C43.235 20.0594 43.2044 19.8139 43.1432 19.5991C43.1432 19.5991 43.0209 19.0161 42.5928 18.7093C42.1647 18.4024 41.5837 18.249 40.911 18.249C40.1465 18.249 39.5349 18.3411 39.0456 18.5559C38.5869 18.7707 38.1588 19.0161 38.1588 19.0161C37.9754 19.1389 37.7002 19.0775 37.5778 18.8934L36.7828 17.6967C36.6605 17.5126 36.7216 17.2671 36.9051 17.1444C36.9051 17.1444 37.0274 17.0523 37.3026 16.8989C37.5778 16.7455 37.9142 16.592 38.2812 16.4693C38.6481 16.3466 39.0762 16.2238 39.5655 16.1318C40.0547 16.0397 40.6052 16.009 41.2779 16.009C41.9812 16.009 42.5928 16.1011 43.1738 16.2852C43.7242 16.4693 44.2135 16.7455 44.611 17.1137C45.0085 17.4512 45.3143 17.8808 45.5284 18.3718C45.7424 18.8627 45.8036 19.5685 45.8036 19.5685C45.8342 19.7833 45.8342 20.1515 45.8342 20.3663V26.8714C45.8342 27.0862 45.6507 27.2703 45.4366 27.2703H43.6936C43.4796 27.2703 43.2655 27.0862 43.2655 26.8714L43.2961 26.6259ZM43.2655 22.6983C43.2655 22.4835 43.0821 22.2687 42.868 22.2687C42.868 22.2687 42.7151 22.2687 42.4705 22.238C42.2564 22.2073 42.0118 22.2073 41.7977 22.2073C41.5531 22.2073 41.3391 22.2073 41.1862 22.2073C40.2994 22.2073 39.6878 22.3915 39.3208 22.729C38.9539 23.0665 38.801 23.4654 38.801 23.9257C38.801 24.386 38.9539 24.7542 39.2903 25.0303C39.6266 25.3065 40.1159 25.4292 40.7581 25.4292C41.0944 25.4292 41.4002 25.3679 41.706 25.2758C42.0118 25.1531 42.287 25.0303 42.5011 24.8462C42.7457 24.6621 42.9292 24.4473 43.0821 24.2018C43.235 23.9564 43.235 23.8029 43.235 23.8029C43.2655 23.5882 43.2961 23.2199 43.2961 23.0051V22.6983H43.2655Z" fill="#4D4D4F"/>
<path d="M3.81836 12.5416C3.81836 12.1121 4.18531 11.7438 4.61341 11.7438H5.92831C6.35642 11.7438 6.72337 12.1121 6.72337 12.5416V13.7997C6.72337 14.2293 6.35642 14.5975 5.92831 14.5975H4.61341C4.18531 14.6282 3.81836 14.26 3.81836 13.7997V12.5416Z" fill="#4D4D4F"/>
<path d="M49.5035 24.0791H47.3935C47.0877 24.0791 46.8125 24.3553 46.8125 24.6928V26.718C46.8125 27.0555 47.0571 27.3317 47.3935 27.3317H49.5035C49.8092 27.3317 50.0845 27.0555 50.0845 26.718V24.6928C50.0845 24.3246 49.8398 24.0791 49.5035 24.0791Z" fill="#F1B51C"/>
</svg>
