<svg width="20" height="19" viewBox="0 0 20 19" fill="none" xmlns="http://www.w3.org/2000/svg">
<path d="M7.68232 17.6666C8.12064 17.6666 8.47597 17.3113 8.47597 16.873C8.47597 16.4347 8.12064 16.0793 7.68232 16.0793C7.244 16.0793 6.88867 16.4347 6.88867 16.873C6.88867 17.3113 7.244 17.6666 7.68232 17.6666Z" fill="#333333" stroke="#333333" stroke-linecap="round" stroke-linejoin="round"/>
<path d="M16.4128 17.6666C16.8511 17.6666 17.2064 17.3113 17.2064 16.873C17.2064 16.4347 16.8511 16.0793 16.4128 16.0793C15.9745 16.0793 15.6191 16.4347 15.6191 16.873C15.6191 17.3113 15.9745 17.6666 16.4128 17.6666Z" fill="#333333" stroke="#333333" stroke-linecap="round" stroke-linejoin="round"/>
<path d="M1.33398 1H4.50859L6.63557 11.627C6.70815 11.9924 6.90693 12.3206 7.19712 12.5542C7.4873 12.7878 7.85041 12.9119 8.22287 12.9048H15.9372C16.3096 12.9119 16.6727 12.7878 16.9629 12.5542C17.2531 12.3206 17.4519 11.9924 17.5245 11.627L18.7943 4.96825H5.30224" stroke="#333333" stroke-linecap="round" stroke-linejoin="round"/>
</svg>
