<svg width="19" height="19" viewBox="0 0 19 19" fill="none" xmlns="http://www.w3.org/2000/svg">
<path d="M9.13415 1.64486C11.5747 1.64486 11.8637 1.65556 12.8235 1.69838C13.7155 1.73763 14.1972 1.88749 14.5183 2.01237C14.9429 2.1765 15.2497 2.37631 15.5673 2.69386C15.8884 3.01498 16.0847 3.31826 16.2488 3.74286C16.3737 4.06398 16.5235 4.54923 16.5628 5.43767C16.6056 6.40104 16.6163 6.69005 16.6163 9.12701C16.6163 11.5675 16.6056 11.8566 16.5628 12.8164C16.5235 13.7084 16.3737 14.19 16.2488 14.5112C16.0847 14.9358 15.8849 15.2426 15.5673 15.5602C15.2462 15.8813 14.9429 16.0775 14.5183 16.2417C14.1972 16.3665 13.7119 16.5164 12.8235 16.5556C11.8601 16.5985 11.5711 16.6092 9.13415 16.6092C6.69362 16.6092 6.40461 16.5985 5.44481 16.5556C4.5528 16.5164 4.07112 16.3665 3.75 16.2417C3.3254 16.0775 3.01855 15.8777 2.701 15.5602C2.37987 15.239 2.18363 14.9358 2.0195 14.5112C1.89462 14.19 1.74476 13.7048 1.70552 12.8164C1.6627 11.853 1.652 11.564 1.652 9.12701C1.652 6.68648 1.6627 6.39747 1.70552 5.43767C1.74476 4.54567 1.89462 4.06398 2.0195 3.74286C2.18363 3.31826 2.38344 3.01141 2.701 2.69386C3.02212 2.37274 3.3254 2.1765 3.75 2.01237C4.07112 1.88749 4.55637 1.73763 5.44481 1.69838C6.40461 1.65556 6.69362 1.64486 9.13415 1.64486ZM9.13415 0C6.65437 0 6.34395 0.0107041 5.36988 0.0535204C4.39938 0.0963367 3.73216 0.25333 3.15414 0.478115C2.55114 0.713605 2.04091 1.02402 1.53425 1.53425C1.02402 2.04091 0.713605 2.55114 0.478115 3.15057C0.25333 3.73216 0.0963367 4.39581 0.0535204 5.36631C0.0107041 6.34395 0 6.65437 0 9.13415C0 11.6139 0.0107041 11.9243 0.0535204 12.8984C0.0963367 13.8689 0.25333 14.5361 0.478115 15.1142C0.713605 15.7172 1.02402 16.2274 1.53425 16.734C2.04091 17.2407 2.55114 17.5547 3.15057 17.7866C3.73216 18.0114 4.39581 18.1684 5.36631 18.2112C6.34038 18.254 6.6508 18.2647 9.13058 18.2647C11.6104 18.2647 11.9208 18.254 12.8948 18.2112C13.8654 18.1684 14.5326 18.0114 15.1106 17.7866C15.71 17.5547 16.2202 17.2407 16.7269 16.734C17.2336 16.2274 17.5476 15.7172 17.7795 15.1177C18.0043 14.5361 18.1613 13.8725 18.2041 12.902C18.2469 11.9279 18.2576 11.6175 18.2576 9.13772C18.2576 6.65794 18.2469 6.34752 18.2041 5.37345C18.1613 4.40294 18.0043 3.73572 17.7795 3.1577C17.5547 2.55114 17.2443 2.04091 16.734 1.53425C16.2274 1.02759 15.7172 0.713605 15.1177 0.481684C14.5361 0.256898 13.8725 0.0999047 12.902 0.0570884C11.9243 0.0107041 11.6139 0 9.13415 0Z" fill="#29241F"/>
<path d="M9.13336 4.44214C6.54297 4.44214 4.44141 6.54371 4.44141 9.13409C4.44141 11.7245 6.54297 13.826 9.13336 13.826C11.7237 13.826 13.8253 11.7245 13.8253 9.13409C13.8253 6.54371 11.7237 4.44214 9.13336 4.44214ZM9.13336 12.1776C7.45282 12.1776 6.08983 10.8146 6.08983 9.13409C6.08983 7.45355 7.45282 6.09057 9.13336 6.09057C10.8139 6.09057 12.1769 7.45355 12.1769 9.13409C12.1769 10.8146 10.8139 12.1776 9.13336 12.1776Z" fill="#29241F"/>
<path d="M15.1068 4.25652C15.1068 4.86308 14.6144 5.3519 14.0114 5.3519C13.4048 5.3519 12.916 4.85951 12.916 4.25652C12.916 3.64995 13.4084 3.16113 14.0114 3.16113C14.6144 3.16113 15.1068 3.65352 15.1068 4.25652Z" fill="#29241F"/>
</svg>
