<svg width="19" height="18" viewBox="0 0 19 18" fill="none" xmlns="http://www.w3.org/2000/svg">
<path d="M0.264706 5.95588H3.97059V18H0.264706V5.95588ZM2.11765 0C3.30882 0 4.23529 0.926471 4.23529 2.11765C4.23529 3.30882 3.30882 4.23529 2.11765 4.23529C0.926471 4.36765 0 3.30882 0 2.11765C0 0.926471 0.926471 0 2.11765 0Z" fill="#29241F"/>
<path d="M6.35352 5.95587H9.92704V7.5441C10.5888 6.61763 11.78 5.69116 13.6329 5.69116C17.4712 5.69116 18.1329 8.20587 18.1329 11.3823V18H14.427V12.1765C14.427 10.7206 14.427 8.99999 12.4418 8.99999C10.4565 8.99999 10.1918 10.4559 10.1918 12.0441V18H6.35352V5.95587Z" fill="#29241F"/>
</svg>
