<svg width="54" height="34" viewBox="0 0 54 34" fill="none" xmlns="http://www.w3.org/2000/svg">
<g filter="url(#filter0_d_4136_11183)">
<rect x="3" y="2" width="47.0165" height="28" rx="2.8875" fill="url(#paint0_linear_4136_11183)"/>
</g>
<path d="M22.1612 13.0452H20.0653C19.9219 13.0452 19.8 13.1482 19.7776 13.2882L18.9299 18.6024C18.9131 18.7073 18.9952 18.8018 19.1028 18.8018H20.1033C20.2468 18.8018 20.3687 18.6988 20.3911 18.5585L20.6197 17.1252C20.6418 16.9849 20.764 16.8818 20.9072 16.8818H21.5706C22.9512 16.8818 23.748 16.2212 23.956 14.9121C24.0498 14.3394 23.96 13.8894 23.6888 13.5743C23.391 13.2282 22.8626 13.0452 22.1612 13.0452ZM22.403 14.9861C22.2883 15.7297 21.7137 15.7297 21.1581 15.7297H20.8419L21.0638 14.3409C21.0769 14.257 21.1505 14.1952 21.2363 14.1952H21.3812C21.7597 14.1952 22.1167 14.1952 22.3012 14.4085C22.4112 14.5358 22.4449 14.7249 22.403 14.9861Z" fill="#253B80"/>
<path d="M28.4266 14.9625H27.423C27.3375 14.9625 27.2636 15.0243 27.2505 15.1082L27.206 15.3858L27.1358 15.2852C26.9186 14.9734 26.4341 14.8691 25.9505 14.8691C24.8414 14.8691 23.8942 15.6997 23.7097 16.8649C23.6138 17.4461 23.7502 18.0019 24.0836 18.3894C24.3894 18.7458 24.827 18.8943 25.3477 18.8943C26.2413 18.8943 26.7368 18.3261 26.7368 18.3261L26.6921 18.6019C26.6752 18.7073 26.7574 18.8019 26.8643 18.8019H27.7684C27.9121 18.8019 28.0334 18.6988 28.0561 18.5585L28.5985 15.1619C28.6157 15.0573 28.5339 14.9625 28.4266 14.9625ZM27.0277 16.894C26.9308 17.461 26.4757 17.8416 25.8953 17.8416C25.6039 17.8416 25.371 17.7491 25.2214 17.574C25.0731 17.4 25.0167 17.1525 25.0639 16.8767C25.1543 16.3146 25.6171 15.9216 26.1886 15.9216C26.4736 15.9216 26.7053 16.0152 26.8579 16.1919C27.0108 16.3704 27.0715 16.6194 27.0277 16.894Z" fill="#253B80"/>
<path d="M33.7717 14.9619H32.7632C32.667 14.9619 32.5766 15.0092 32.522 15.0883L31.131 17.1143L30.5414 15.1674C30.5043 15.0456 30.3907 14.9619 30.2619 14.9619H29.2709C29.1504 14.9619 29.0668 15.0783 29.1051 15.1904L30.216 18.414L29.1716 19.8719C29.0895 19.9868 29.1722 20.1446 29.3141 20.1446H30.3214C30.417 20.1446 30.5065 20.0986 30.5607 20.021L33.9152 15.2331C33.9954 15.1186 33.913 14.9619 33.7717 14.9619Z" fill="#253B80"/>
<path d="M37.1104 13.0452H35.0143C34.8711 13.0452 34.7492 13.1482 34.7268 13.2882L33.8792 18.6024C33.8623 18.7073 33.9444 18.8018 34.0514 18.8018H35.127C35.2269 18.8018 35.3124 18.7297 35.3281 18.6315L35.5686 17.1252C35.5907 16.9849 35.713 16.8818 35.8561 16.8818H36.5192C37.9001 16.8818 38.6966 16.2212 38.905 14.9121C38.999 14.3394 38.9086 13.8894 38.6374 13.5743C38.3399 13.2282 37.8118 13.0452 37.1104 13.0452ZM37.3522 14.9861C37.2379 15.7297 36.6633 15.7297 36.1074 15.7297H35.7914L36.0136 14.3409C36.0268 14.257 36.0997 14.1952 36.1858 14.1952H36.3308C36.7089 14.1952 37.0662 14.1952 37.2507 14.4085C37.3607 14.5358 37.3942 14.7249 37.3522 14.9861Z" fill="#179BD7"/>
<path d="M43.3745 14.9625H42.3715C42.2854 14.9625 42.2122 15.0243 42.1993 15.1082L42.1548 15.3858L42.0844 15.2852C41.8671 14.9734 41.3829 14.8691 40.8993 14.8691C39.7903 14.8691 38.8433 15.6997 38.6588 16.8649C38.5632 17.4461 38.699 18.0019 39.0324 18.3894C39.3389 18.7458 39.7759 18.8943 40.2965 18.8943C41.1901 18.8943 41.6857 18.3261 41.6857 18.3261L41.6409 18.6019C41.6241 18.7073 41.7062 18.8019 41.8138 18.8019H42.7175C42.8606 18.8019 42.9826 18.6988 43.0049 18.5585L43.5477 15.1619C43.5642 15.0573 43.4821 14.9625 43.3745 14.9625ZM41.9756 16.894C41.8793 17.461 41.4237 17.8416 40.8432 17.8416C40.5524 17.8416 40.3189 17.7491 40.1693 17.574C40.021 17.4 39.9652 17.1525 40.0118 16.8767C40.1028 16.3146 40.565 15.9216 41.1365 15.9216C41.4215 15.9216 41.6532 16.0152 41.8058 16.1919C41.9593 16.3704 42.02 16.6194 41.9756 16.894Z" fill="#179BD7"/>
<path d="M44.5577 13.1907L43.6975 18.6023C43.6807 18.7071 43.7628 18.8016 43.8697 18.8016H44.7345C44.8783 18.8016 45.0002 18.6986 45.0223 18.5583L45.8706 13.2444C45.8874 13.1395 45.8053 13.0447 45.6983 13.0447H44.73C44.6445 13.045 44.5709 13.1068 44.5577 13.1907Z" fill="#179BD7"/>
<path d="M10.2277 19.8343L10.388 18.8276L10.031 18.8195H8.32617L9.51091 11.3913C9.51459 11.3688 9.52654 11.3479 9.54401 11.3331C9.56148 11.3182 9.58385 11.3101 9.60714 11.3101H12.4817C13.4359 11.3101 14.0945 11.5064 14.4383 11.894C14.5995 12.0758 14.7022 12.2658 14.7518 12.4749C14.8039 12.6943 14.8049 12.9564 14.754 13.2761L14.7503 13.2995V13.5043L14.9115 13.5946C15.0473 13.6658 15.1551 13.7473 15.2379 13.8407C15.3758 13.9961 15.465 14.1937 15.5027 14.4279C15.5416 14.6688 15.5287 14.9555 15.465 15.2801C15.3914 15.6534 15.2725 15.9785 15.1119 16.2446C14.9642 16.4898 14.7761 16.6931 14.5527 16.8507C14.3394 17.0004 14.0859 17.114 13.7994 17.1867C13.5218 17.2582 13.2052 17.2943 12.858 17.2943H12.6343C12.4743 17.2943 12.3189 17.3513 12.197 17.4534C12.0747 17.5576 11.9938 17.7001 11.969 17.8558L11.9521 17.9464L11.6689 19.7207L11.6561 19.7858C11.6527 19.8064 11.6469 19.8167 11.6383 19.8237C11.6306 19.8301 11.6196 19.8343 11.6089 19.8343H10.2277Z" fill="#253B80"/>
<path d="M15.0632 13.3232C15.0546 13.3775 15.0448 13.4329 15.0337 13.4899C14.6547 15.4145 13.3578 16.0793 11.7014 16.0793H10.858C10.6555 16.0793 10.4848 16.2248 10.4532 16.4223L10.0214 19.1302L9.89914 19.8978C9.87861 20.0275 9.97974 20.1445 10.1121 20.1445H11.6079C11.785 20.1445 11.9355 20.0172 11.9634 19.8445L11.9781 19.7693L12.2597 18.002L12.2778 17.9051C12.3054 17.7317 12.4562 17.6045 12.6333 17.6045H12.857C14.3062 17.6045 15.4407 17.0226 15.7723 15.339C15.9108 14.6357 15.8391 14.0484 15.4726 13.6354C15.3616 13.5108 15.224 13.4075 15.0632 13.3232Z" fill="#179BD7"/>
<path d="M14.6665 13.167C14.6086 13.1503 14.5489 13.1352 14.4876 13.1216C14.426 13.1082 14.3628 13.0964 14.2979 13.0861C14.0705 13.0497 13.8213 13.0325 13.5544 13.0325H11.3014C11.2459 13.0325 11.1932 13.0449 11.146 13.0673C11.0421 13.1167 10.9649 13.214 10.9462 13.3331L10.4669 16.3349L10.4531 16.4225C10.4847 16.2249 10.6554 16.0794 10.8579 16.0794H11.7013C13.3577 16.0794 14.6546 15.4143 15.0337 13.49C15.045 13.4331 15.0545 13.3776 15.0631 13.3234C14.9672 13.2731 14.8633 13.23 14.7514 13.1934C14.7238 13.1843 14.6953 13.1755 14.6665 13.167Z" fill="#222D65"/>
<path d="M10.9462 13.333C10.9649 13.2139 11.0421 13.1167 11.146 13.0676C11.1935 13.0452 11.2459 13.0327 11.3014 13.0327H13.5544C13.8214 13.0327 14.0705 13.05 14.2979 13.0864C14.3629 13.0967 14.426 13.1085 14.4876 13.1218C14.5489 13.1355 14.6086 13.1506 14.6665 13.1673C14.6954 13.1758 14.7239 13.1845 14.7517 13.1933C14.8636 13.23 14.9675 13.2733 15.0634 13.3233C15.1762 12.6121 15.0625 12.1279 14.6736 11.6894C14.2449 11.2067 13.4711 11 12.4809 11H9.60642C9.40416 11 9.23163 11.1455 9.20037 11.3433L8.00306 18.8479C7.97946 18.9964 8.0953 19.1303 8.24669 19.1303H10.0214L10.4669 16.3348L10.9462 13.333Z" fill="#253B80"/>
<defs>
<filter id="filter0_d_4136_11183" x="0" y="0" width="53.0156" height="34" filterUnits="userSpaceOnUse" color-interpolation-filters="sRGB">
<feFlood flood-opacity="0" result="BackgroundImageFix"/>
<feColorMatrix in="SourceAlpha" type="matrix" values="0 0 0 0 0 0 0 0 0 0 0 0 0 0 0 0 0 0 127 0" result="hardAlpha"/>
<feOffset dy="1"/>
<feGaussianBlur stdDeviation="1.5"/>
<feColorMatrix type="matrix" values="0 0 0 0 0 0 0 0 0 0 0 0 0 0 0 0 0 0 0.3 0"/>
<feBlend mode="normal" in2="BackgroundImageFix" result="effect1_dropShadow_4136_11183"/>
<feBlend mode="normal" in="SourceGraphic" in2="effect1_dropShadow_4136_11183" result="shape"/>
</filter>
<linearGradient id="paint0_linear_4136_11183" x1="3" y1="2" x2="3" y2="30" gradientUnits="userSpaceOnUse">
<stop stop-color="white"/>
<stop offset="1" stop-color="#E0E0E0"/>
</linearGradient>
</defs>
</svg>
