<svg width="54" height="34" viewBox="0 0 54 34" fill="none" xmlns="http://www.w3.org/2000/svg">
<g filter="url(#filter0_d_4136_11148)">
<rect x="3" y="2" width="47.0165" height="28" rx="2.8875" fill="url(#paint0_linear_4136_11148)"/>
</g>
<path d="M23.3284 23.4208L7.86914 23.4261V23.3901C7.86914 23.3703 7.8938 23.242 7.92393 23.1049C7.95407 22.9679 8.00092 22.7499 8.02804 22.6205C8.05517 22.4911 8.10155 22.2712 8.1311 22.1318C8.16066 21.9925 8.20977 21.7604 8.24024 21.6161C8.2707 21.4717 8.31843 21.2437 8.34629 21.1093C8.37416 20.9749 8.42068 20.7551 8.44968 20.6207C8.47867 20.4863 8.52811 20.2542 8.55953 20.1049C8.59096 19.9556 8.63873 19.7276 8.66568 19.5982C8.69265 19.4688 8.73549 19.2692 8.7609 19.1548C8.7863 19.0403 8.81869 18.8856 8.83287 18.8109C8.84705 18.7363 8.89293 18.5164 8.93483 18.3223C8.97673 18.1282 9.02299 17.9083 9.03762 17.8336C9.05226 17.759 9.09873 17.5391 9.14088 17.345C9.18303 17.1509 9.22934 16.931 9.24378 16.8564C9.25823 16.7817 9.30479 16.5618 9.34726 16.3677C9.38973 16.1736 9.43557 15.9578 9.44912 15.8882C9.46267 15.8185 9.4998 15.6393 9.53161 15.49C9.56343 15.3407 9.62364 15.0597 9.66541 14.8656C9.70717 14.6715 9.77862 14.3336 9.82416 14.1146C9.86971 13.8956 9.92414 13.635 9.94512 13.5355C9.96609 13.4359 10.004 13.2568 10.0294 13.1373C10.0548 13.0179 10.1009 12.8021 10.1319 12.6577C10.1628 12.5134 10.2132 12.2772 10.2438 12.1329C10.2744 11.9886 10.3215 11.7646 10.3486 11.6352C10.3756 11.5058 10.4217 11.29 10.4511 11.1556C10.4805 11.0213 10.531 10.7851 10.5633 10.6308C10.5957 10.4765 10.6499 10.2403 10.6838 10.106C10.7177 9.97159 10.7656 9.80871 10.7903 9.74401C10.815 9.67932 10.8831 9.53906 10.9417 9.43234L11.0482 9.23831L11.1451 9.11564C11.1983 9.04817 11.2934 8.94155 11.3564 8.87871C11.4193 8.81587 11.5256 8.72132 11.5925 8.66859C11.6594 8.61586 11.7562 8.5447 11.8076 8.51046C11.8591 8.47621 11.9601 8.41626 12.0322 8.37722C12.1042 8.33819 12.2052 8.28708 12.2567 8.26364C12.3081 8.2402 12.4134 8.19742 12.4906 8.16858C12.5677 8.13973 12.7151 8.09138 12.818 8.06113C12.9209 8.03089 13.114 7.98529 13.2472 7.95981C13.3804 7.93434 13.5909 7.90031 13.715 7.88419L13.9406 7.8549L29.4092 7.8492L44.8778 7.84351V7.87947C44.8778 7.89925 44.853 8.02758 44.8227 8.16464C44.7924 8.3017 44.7417 8.536 44.7101 8.6853C44.6784 8.83461 44.6323 9.05042 44.6075 9.16489C44.5827 9.27936 44.5358 9.49924 44.5032 9.65353C44.4707 9.80781 44.4206 10.044 44.3919 10.1784C44.3632 10.3127 44.3168 10.5326 44.2888 10.667C44.2607 10.8014 44.214 11.0213 44.185 11.1556C44.156 11.29 44.111 11.5017 44.085 11.6262C44.0591 11.7506 44.0121 11.9745 43.9806 12.1239C43.9491 12.2732 43.8985 12.5093 43.8682 12.6487C43.8379 12.788 43.7917 13.0038 43.7655 13.1283C43.7394 13.2527 43.6923 13.4766 43.661 13.626C43.6296 13.7753 43.5792 14.0114 43.5489 14.1508C43.5185 14.2901 43.4734 14.5019 43.4485 14.6213C43.4235 14.7408 43.3767 14.9647 43.3443 15.119C43.3119 15.2733 43.2647 15.4972 43.2394 15.6167C43.2141 15.7361 43.1689 15.9479 43.139 16.0872C43.109 16.2266 43.0579 16.4668 43.0252 16.6211C42.9926 16.7754 42.9459 16.9953 42.9215 17.1097C42.897 17.2242 42.8513 17.44 42.8198 17.5893C42.7884 17.7386 42.7383 17.9748 42.7085 18.1142C42.6788 18.2535 42.6322 18.4734 42.6049 18.6028C42.5777 18.7322 42.5303 18.9562 42.4996 19.1005C42.469 19.2448 42.4189 19.481 42.3884 19.6253C42.3578 19.7696 42.3121 19.9855 42.2867 20.1049C42.2613 20.2243 42.2148 20.4442 42.1835 20.5935C42.1521 20.7428 42.1011 20.9781 42.0702 21.1164L42.0138 21.3678L41.9467 21.5417C41.9098 21.6373 41.8543 21.7645 41.8234 21.8242C41.7925 21.8839 41.7295 21.9893 41.6835 22.0583C41.6374 22.1274 41.5732 22.2159 41.5408 22.255C41.5084 22.2941 41.4109 22.395 41.3242 22.4793L41.1664 22.6325L41.0145 22.7368C40.931 22.7943 40.841 22.8526 40.8146 22.8666C40.7882 22.8805 40.6876 22.9302 40.591 22.977C40.4945 23.0237 40.3581 23.0833 40.2879 23.1092C40.2178 23.1352 40.0789 23.1794 39.9792 23.2075C39.8796 23.2356 39.7728 23.2632 39.7419 23.2689C39.711 23.2747 39.6039 23.2961 39.5037 23.3166C39.4036 23.3371 39.2016 23.3677 39.0547 23.3847L38.7877 23.4155L23.3284 23.4208ZM17.8283 19.5529H18.2306L18.2419 19.5243C18.2482 19.5086 18.2533 19.4715 18.2533 19.442C18.2533 19.4125 18.2665 19.3053 18.2827 19.2037C18.299 19.1021 18.337 18.8684 18.3673 18.6842C18.3975 18.5001 18.4429 18.2232 18.468 18.0689C18.4932 17.9146 18.5238 17.7171 18.5362 17.6301C18.5486 17.543 18.5636 17.4717 18.5697 17.4717C18.5758 17.4717 18.6018 17.5102 18.6275 17.5572L18.6743 17.6427L18.778 17.7438L18.8817 17.8449L19.0094 17.8943L19.137 17.9438L19.2892 17.9629L19.4414 17.9819L19.6345 17.9705L19.8277 17.959L20.0368 17.9067L20.2459 17.8543L20.3582 17.8048C20.4199 17.7775 20.5294 17.7181 20.6014 17.6727L20.7324 17.5902L20.8545 17.4721C20.9217 17.4072 21.0164 17.3031 21.065 17.2407C21.1136 17.1784 21.1534 17.1229 21.1534 17.1173C21.1534 17.1118 21.1772 17.0732 21.2064 17.0316C21.2356 16.99 21.2953 16.8745 21.3392 16.7749C21.383 16.6754 21.4515 16.4962 21.4913 16.3768L21.5639 16.1596L21.6013 15.9715C21.622 15.868 21.6485 15.697 21.6603 15.5915L21.6817 15.3995L21.6693 15.2366L21.6569 15.0738L21.6179 14.9109L21.5789 14.748L21.5157 14.6261L21.4525 14.5041L21.3304 14.3789L21.2083 14.2538L21.0639 14.1816L20.9195 14.1094L20.7604 14.0725L20.6014 14.0357L20.4424 14.0244L20.2833 14.0131L20.1062 14.0328L19.929 14.0525L19.7844 14.0882L19.6398 14.1239L19.5142 14.1802C19.4451 14.2111 19.3446 14.2636 19.2908 14.2969C19.237 14.3302 19.1815 14.3685 19.1675 14.382C19.1535 14.3955 19.1199 14.4205 19.0929 14.4376L19.0438 14.4687L19.0781 14.3097C19.097 14.2223 19.1128 14.1406 19.1132 14.1282L19.1139 14.1055H18.7709H18.4279L18.3678 14.472C18.3347 14.6736 18.2824 14.9851 18.2517 15.1643C18.2209 15.3434 18.1745 15.6122 18.1486 15.7615C18.1227 15.9108 18.0764 16.1755 18.0458 16.3496C18.0152 16.5238 17.9646 16.8007 17.9334 16.965C17.9022 17.1292 17.8565 17.3694 17.8318 17.4988C17.8071 17.6282 17.7607 17.8726 17.7286 18.0418C17.6965 18.211 17.6449 18.4797 17.614 18.639C17.583 18.7983 17.5327 19.0507 17.5021 19.2C17.4715 19.3493 17.4418 19.4898 17.4362 19.5122L17.426 19.5529H17.8283ZM19.5602 17.4605L19.404 17.4696L19.3018 17.4522L19.1997 17.4347L19.096 17.3889L18.9923 17.3431L18.9199 17.2762L18.8474 17.2093L18.8056 17.1188C18.7826 17.069 18.7531 16.9845 18.74 16.9309L18.7161 16.8335L18.7257 16.6776L18.7352 16.5216L18.7834 16.2773C18.8099 16.1429 18.8576 15.8904 18.8892 15.7162C18.9209 15.542 18.9689 15.2868 18.9958 15.1491L19.0448 14.8986L19.152 14.8123C19.211 14.7648 19.3045 14.7011 19.3597 14.6708L19.4601 14.6157L19.5911 14.5765L19.722 14.5373L19.8904 14.5278L20.0588 14.5182L20.1959 14.5465L20.333 14.5747L20.4298 14.6178L20.5266 14.6609L20.6077 14.7398L20.6888 14.8187L20.7326 14.9023C20.7567 14.9483 20.7905 15.0382 20.8078 15.1022L20.8391 15.2185L20.8295 15.5624L20.8199 15.9063L20.7719 16.1095C20.7454 16.2213 20.6951 16.3923 20.6601 16.4895L20.5963 16.6664L20.5183 16.8095C20.4753 16.8882 20.4091 16.9946 20.3711 17.0459C20.3331 17.0972 20.2726 17.1636 20.2366 17.1935C20.2005 17.2234 20.1402 17.2702 20.1025 17.2974L20.034 17.3469L19.8752 17.3992L19.7164 17.4514L19.5602 17.4605ZM23.4453 17.958L23.6512 17.9603L23.857 17.9421C23.9702 17.9322 24.1554 17.9114 24.2686 17.8959C24.3818 17.8805 24.5773 17.846 24.7031 17.8192L24.9319 17.7705L24.9433 17.689C24.9495 17.6441 24.9752 17.5106 25.0004 17.3922L25.0461 17.1771L25.036 17.1673L25.0259 17.1575L24.956 17.1902C24.9175 17.2082 24.7977 17.251 24.6898 17.2855L24.4935 17.348L24.2875 17.3866L24.0815 17.4252L23.7541 17.4258L23.4266 17.4264L23.3144 17.3918C23.2526 17.3727 23.1618 17.3378 23.1126 17.3142L23.023 17.2713L22.9491 17.2068L22.8752 17.1422L22.8176 17.0447L22.7599 16.9472L22.7237 16.8249L22.6876 16.7027L22.6873 16.4764L22.6871 16.2501L22.7192 16.0482L22.7513 15.8464L23.0328 15.8336L23.3144 15.8209L24.3552 15.8274L25.3959 15.8339L25.4274 15.7049C25.4446 15.634 25.4711 15.4874 25.4861 15.3792L25.5134 15.1823L25.5139 15.0168L25.5145 14.8512L25.4849 14.7276L25.4553 14.604L25.4063 14.5222C25.3793 14.4772 25.3318 14.4119 25.3007 14.3772C25.2696 14.3425 25.2141 14.2936 25.1774 14.2684C25.1406 14.2433 25.0685 14.2011 25.017 14.1747L24.9235 14.1266L24.76 14.0885L24.5965 14.0504L24.3951 14.0317L24.1938 14.0131L24.0067 14.0249L23.8196 14.0367L23.595 14.0784L23.3705 14.1201L23.2302 14.1744C23.153 14.2042 23.0351 14.2586 22.9682 14.2953C22.9014 14.332 22.8087 14.3917 22.7624 14.428C22.7161 14.4643 22.6359 14.5349 22.5843 14.5848C22.5326 14.6347 22.4561 14.7245 22.4144 14.7842C22.3726 14.8439 22.3086 14.9498 22.2721 15.0195C22.2356 15.0891 22.1881 15.1869 22.1665 15.2366C22.1448 15.2864 22.1055 15.3882 22.0791 15.4629C22.0528 15.5375 22.0113 15.68 21.9869 15.7796C21.9626 15.8791 21.9293 16.0429 21.9129 16.1437L21.8831 16.3268L21.8833 16.5961L21.8836 16.8654L21.912 16.9831C21.9277 17.0478 21.9576 17.1455 21.9785 17.2002C21.9994 17.255 22.0381 17.3364 22.0644 17.3812C22.0908 17.426 22.147 17.4981 22.1895 17.5415C22.2319 17.5848 22.3087 17.6506 22.3602 17.6877C22.4116 17.7247 22.5032 17.7768 22.5637 17.8035L22.6737 17.8519L22.8271 17.8877C22.9114 17.9075 23.0388 17.9308 23.11 17.9397C23.1812 17.9485 23.3322 17.9568 23.4454 17.958H23.4453ZM23.7978 15.4086C23.2798 15.4086 22.856 15.405 22.856 15.4006C22.856 15.3962 22.8781 15.3331 22.9051 15.2603C22.9321 15.1876 22.9795 15.0793 23.0105 15.0197L23.0668 14.9113L23.1906 14.7922L23.3144 14.6732L23.436 14.6169C23.5029 14.586 23.5913 14.5523 23.6325 14.5421C23.6736 14.5318 23.7915 14.5183 23.8944 14.5119L24.0815 14.5003L24.2252 14.5182L24.3689 14.5361L24.4733 14.5823L24.5777 14.6285L24.635 14.6883C24.6665 14.7211 24.704 14.7695 24.7184 14.7958L24.7445 14.8436L24.7618 14.9496L24.7791 15.0557L24.7593 15.2321L24.7396 15.4086H23.7978ZM29.3953 17.9581L29.6012 17.9603L29.835 17.9335C29.9636 17.9188 30.1347 17.8944 30.2153 17.8793C30.2959 17.8641 30.4264 17.8341 30.5053 17.8126C30.5842 17.791 30.6556 17.7677 30.6639 17.7608C30.6723 17.7539 30.6946 17.6717 30.7135 17.5783C30.7324 17.4848 30.7562 17.3595 30.7664 17.2998C30.7766 17.24 30.7819 17.188 30.7781 17.1841C30.7744 17.1802 30.7606 17.1852 30.7474 17.1953C30.7343 17.2054 30.6425 17.2427 30.5434 17.2783L30.3633 17.3431L30.1067 17.3911L29.8502 17.4392L29.632 17.432L29.4139 17.4248L29.29 17.3833L29.1661 17.3417L29.0704 17.2607L28.9746 17.1797L28.9111 17.0678L28.8476 16.9559L28.8173 16.8062L28.7871 16.6566L28.7873 16.4624L28.7875 16.2682L28.8242 16.0329L28.861 15.7977L28.8999 15.671C28.9213 15.6013 28.9455 15.5199 28.9537 15.49C28.9619 15.4601 28.9962 15.3746 29.0299 15.3C29.0637 15.2253 29.1239 15.11 29.1637 15.0436L29.2361 14.9229L29.3251 14.8338L29.414 14.7446L29.5082 14.6881L29.6024 14.6316L29.7234 14.5956C29.7899 14.5757 29.9075 14.55 29.9847 14.5384L30.125 14.5172L30.3308 14.5272L30.5366 14.5372L30.7799 14.5843L31.0231 14.6314L31.122 14.6671C31.1764 14.6867 31.2233 14.7028 31.2262 14.7028C31.2291 14.7028 31.2422 14.6356 31.2552 14.5535C31.2683 14.4713 31.2915 14.3362 31.3068 14.2532C31.3222 14.1702 31.331 14.0987 31.3265 14.0944C31.322 14.09 31.2489 14.0788 31.164 14.0694C31.0792 14.0601 30.8486 14.0434 30.6516 14.0325L30.2934 14.0126L30.0408 14.0313L29.7882 14.0501L29.6011 14.0881L29.414 14.1261L29.2935 14.1727C29.2273 14.1984 29.1302 14.2447 29.0778 14.2756C29.0254 14.3065 28.9588 14.348 28.9297 14.368C28.9006 14.3879 28.8123 14.4655 28.7334 14.5406L28.5901 14.677L28.5101 14.7903C28.4661 14.8527 28.39 14.9827 28.341 15.0792L28.2519 15.2547L28.1836 15.4448C28.146 15.5493 28.0935 15.7203 28.067 15.8248L28.0187 16.0148L28.0012 16.1868L27.9837 16.3587L27.9838 16.5849L27.984 16.8111L28.0017 16.9427L28.0194 17.0743L28.0754 17.2097L28.1315 17.3451L28.1962 17.443L28.2609 17.5408L28.3638 17.6388L28.4668 17.7368L28.5756 17.7924L28.6845 17.8481L28.8276 17.8865C28.9062 17.9077 29.0199 17.9319 29.0801 17.9404C29.1404 17.949 29.2823 17.9569 29.3956 17.9581H29.3953ZM32.473 17.9514L32.7256 17.9444L32.8846 17.9051L33.0437 17.8657L33.1466 17.8186C33.2032 17.7928 33.2958 17.7417 33.3524 17.7051C33.409 17.6685 33.4966 17.599 33.5471 17.5506C33.5975 17.5022 33.6724 17.4197 33.7134 17.3672C33.7544 17.3146 33.7904 17.2741 33.7934 17.277C33.7965 17.2799 33.787 17.3636 33.7725 17.463C33.7579 17.5623 33.7459 17.6945 33.7457 17.7567L33.7453 17.8698H34.0887H34.4321L34.4426 17.612L34.4531 17.3541L34.5021 17.0193C34.529 16.8351 34.5725 16.5623 34.5988 16.413C34.625 16.2637 34.6707 16.0112 34.7002 15.852C34.7297 15.6927 34.7765 15.4443 34.8041 15.3L34.8544 15.0376L34.856 14.8109L34.8577 14.5842L34.8047 14.4795L34.7518 14.3747L34.6799 14.308L34.608 14.2413L34.4901 14.1835L34.3721 14.1256L34.1963 14.0878L34.0205 14.05L33.7784 14.0322L33.5363 14.0143L33.2245 14.033C33.053 14.0433 32.8117 14.0635 32.6882 14.078L32.4637 14.1044L32.3107 14.105L32.1576 14.1055L32.1354 14.2096C32.1231 14.2668 32.0891 14.4028 32.0598 14.5118C32.0304 14.6207 32.0091 14.7125 32.0124 14.7157C32.0158 14.7189 32.0976 14.701 32.1943 14.6758C32.291 14.6506 32.4964 14.6092 32.6508 14.5838L32.9314 14.5376L33.184 14.5275L33.4366 14.5174L33.5993 14.545L33.762 14.5726L33.8706 14.6245L33.9792 14.6763L34.04 14.764L34.1008 14.8516L34.0999 14.9898L34.0991 15.128L34.0669 15.2797L34.0346 15.4314L33.3614 15.4337L32.6882 15.4361L32.4678 15.4945C32.3467 15.5267 32.2125 15.5693 32.1696 15.5893C32.1268 15.6094 32.084 15.6257 32.0745 15.6257C32.0649 15.6257 31.9928 15.6644 31.9143 15.7117L31.7714 15.7976L31.6589 15.9062C31.597 15.966 31.5179 16.0556 31.4832 16.1053C31.4484 16.1551 31.392 16.2591 31.3577 16.3364L31.2954 16.4769L31.2668 16.635L31.2383 16.793V16.9588V17.1247L31.2656 17.2627L31.2929 17.4008L31.3435 17.4908C31.3714 17.5403 31.4225 17.6129 31.4572 17.652L31.5202 17.7232L31.6321 17.7889L31.744 17.8547L31.8721 17.8897C31.9425 17.909 32.0497 17.9324 32.1104 17.9416L32.2205 17.9584L32.4731 17.9514L32.473 17.9514ZM32.7069 17.4454L32.5572 17.4529L32.4581 17.4285C32.4035 17.4151 32.3208 17.3851 32.2742 17.3619L32.1895 17.3198L32.1432 17.2667C32.1178 17.2374 32.079 17.18 32.0569 17.139L32.0168 17.0645L32.009 16.8905L32.0011 16.7166L32.0328 16.611C32.0503 16.553 32.0912 16.4523 32.1238 16.3872L32.183 16.2689L32.2964 16.16L32.4098 16.051L32.5303 15.9949L32.6507 15.9388L32.8004 15.9044L32.9501 15.8701H33.4179H33.8856L33.9152 15.8819L33.9448 15.8937L33.9199 16.0357C33.9062 16.1138 33.8735 16.2551 33.8473 16.3496C33.8211 16.4442 33.7748 16.5832 33.7444 16.6585C33.714 16.7339 33.6892 16.8005 33.6892 16.8066C33.6892 16.8126 33.6584 16.8675 33.6208 16.9285L33.5525 17.0395L33.4403 17.147C33.3786 17.2061 33.3213 17.2545 33.313 17.2545C33.3047 17.2545 33.2669 17.2749 33.229 17.2998L33.16 17.3451L33.0083 17.3914L32.8566 17.4378L32.7069 17.4454ZM38.797 17.9579L38.9748 17.9601L39.1432 17.9336C39.2358 17.9191 39.3537 17.8957 39.4051 17.8816C39.4566 17.8675 39.5492 17.8309 39.6109 17.8003L39.7232 17.7447L39.8198 17.6625L39.9163 17.5803L40.018 17.4491C40.074 17.3769 40.1246 17.3057 40.1306 17.2907L40.1415 17.2636L40.132 17.3541C40.1268 17.4038 40.1152 17.4853 40.1061 17.535C40.0971 17.5848 40.0841 17.6805 40.0773 17.7477L40.065 17.8698H40.432H40.799V17.7477V17.6255L40.8549 17.164C40.8857 16.9102 40.9312 16.5722 40.956 16.413C40.9808 16.2537 41.0192 16.0257 41.0412 15.9063C41.0632 15.7868 41.1022 15.571 41.1278 15.4267C41.1534 15.2823 41.1997 15.0299 41.2307 14.8656C41.2617 14.7014 41.3112 14.4408 41.3408 14.2865C41.3704 14.1322 41.4164 13.892 41.4431 13.7526C41.4697 13.6133 41.5174 13.369 41.5491 13.2097C41.5808 13.0504 41.627 12.8265 41.6519 12.712C41.6768 12.5976 41.6971 12.4978 41.6971 12.4903V12.4768H41.2966H40.8962L40.8844 12.5899C40.8779 12.6521 40.8472 12.8577 40.8163 13.0468C40.7853 13.236 40.7348 13.5373 40.7041 13.7164C40.6734 13.8956 40.6438 14.0693 40.6383 14.1025L40.6283 14.1629L40.5967 14.1499C40.5793 14.1427 40.4851 14.1174 40.3874 14.0937L40.2096 14.0505L39.9664 14.0322L39.7232 14.0139L39.5173 14.0324L39.3115 14.051L39.1244 14.0967L38.9373 14.1425L38.7596 14.2263L38.5818 14.3102L38.4509 14.404L38.3199 14.4978L38.2068 14.6151C38.1446 14.6796 38.0547 14.7863 38.0071 14.8522L37.9205 14.972L37.8188 15.1767C37.7628 15.2893 37.6948 15.4384 37.6675 15.5081C37.6402 15.5778 37.5922 15.7322 37.5607 15.8513L37.5034 16.0679L37.4752 16.349L37.447 16.6302L37.4681 16.8564L37.4893 17.0826L37.5144 17.164C37.5282 17.2088 37.5572 17.2886 37.5789 17.3414L37.6184 17.4373L37.6905 17.5316L37.7625 17.6259L37.8447 17.6911L37.927 17.7562L38.0392 17.8101C38.101 17.8398 38.2046 17.8781 38.2694 17.8953C38.3343 17.9125 38.4395 17.9331 38.5033 17.9411C38.5671 17.9492 38.6992 17.9567 38.797 17.9579H38.797ZM39.1161 17.4444L38.9748 17.4517L38.8794 17.4351C38.827 17.426 38.7431 17.4015 38.6929 17.3807L38.6018 17.3429L38.5251 17.2821L38.4484 17.2214L38.3914 17.1158L38.3344 17.0102L38.3085 16.8926L38.2825 16.7749L38.2847 16.5397L38.2869 16.3044L38.3171 16.0963L38.3472 15.8882L38.3941 15.7434C38.4199 15.6637 38.4411 15.5886 38.4413 15.5764C38.4415 15.5642 38.4669 15.4991 38.4978 15.4316C38.5288 15.3642 38.5805 15.2602 38.6128 15.2004C38.645 15.1407 38.7053 15.0476 38.7468 14.9936C38.7882 14.9395 38.862 14.858 38.9108 14.8126C38.9596 14.7671 39.0372 14.7075 39.0833 14.6801L39.167 14.6302L39.3141 14.581L39.4612 14.5317L39.77 14.5315H40.0787L40.2564 14.5792C40.3542 14.6055 40.458 14.6359 40.4871 14.6468L40.54 14.6667L40.5297 14.7164C40.524 14.7437 40.5018 14.8638 40.4803 14.9833C40.4588 15.1027 40.4164 15.3307 40.3861 15.49C40.3559 15.6493 40.3094 15.8895 40.2828 16.0239C40.2562 16.1583 40.2177 16.3293 40.1972 16.4039C40.1768 16.4786 40.1479 16.582 40.1331 16.6337C40.1182 16.6854 40.0829 16.775 40.0546 16.8328C40.0263 16.8906 39.9767 16.9745 39.9444 17.0193C39.9122 17.064 39.8576 17.1261 39.8232 17.1571C39.7888 17.1882 39.7143 17.2434 39.6577 17.2797L39.5548 17.3459L39.4061 17.3915L39.2573 17.4372L39.1161 17.4444V17.4444ZM11.5793 17.8698H12.0339L12.0665 17.6753C12.0845 17.5683 12.1195 17.3627 12.1444 17.2183C12.1693 17.074 12.2156 16.8053 12.2473 16.6211C12.279 16.437 12.3266 16.1641 12.353 16.0148C12.3794 15.8655 12.4213 15.6339 12.4462 15.5002C12.4711 15.3664 12.4961 15.2524 12.5019 15.2468L12.5124 15.2366H13.7348H14.9572L14.9707 15.2498L14.9843 15.2629L14.9631 15.3674C14.9515 15.4249 14.917 15.6022 14.8865 15.7615C14.856 15.9207 14.8047 16.1895 14.7726 16.3587C14.7404 16.5279 14.6939 16.7682 14.6693 16.8926C14.6446 17.017 14.5946 17.2776 14.5583 17.4717C14.5219 17.6658 14.4923 17.8348 14.4924 17.8472L14.4926 17.8698H14.949H15.4055L15.4257 17.7567C15.4368 17.6945 15.4547 17.5825 15.4654 17.5079C15.4762 17.4332 15.502 17.2744 15.5229 17.155C15.5438 17.0355 15.5856 16.7994 15.6157 16.6302C15.6459 16.4609 15.6963 16.1718 15.7278 15.9877C15.7593 15.8035 15.8061 15.5348 15.8317 15.3905C15.8573 15.2461 15.903 15.0018 15.9332 14.8475C15.9634 14.6933 16.0137 14.4327 16.0449 14.2684C16.0762 14.1042 16.123 13.8558 16.149 13.7164C16.175 13.5771 16.2224 13.3246 16.2543 13.1554C16.2862 12.9862 16.3265 12.7887 16.3439 12.7165L16.3754 12.5853H15.9132H15.451L15.4384 12.6713C15.4315 12.7186 15.4092 12.8509 15.3888 12.9654C15.3685 13.0799 15.3314 13.2835 15.3065 13.4178C15.2815 13.5522 15.236 13.8087 15.2052 13.9879C15.1745 14.1671 15.1353 14.4042 15.1182 14.515L15.087 14.7163L14.4085 14.7295L13.73 14.7428L13.1618 14.7298C12.8492 14.7226 12.5917 14.7153 12.5896 14.7136C12.5875 14.7118 12.5981 14.6415 12.6133 14.5573C12.6284 14.4731 12.657 14.3268 12.6769 14.2322C12.6967 14.1377 12.7344 13.9504 12.7605 13.816C12.7867 13.6816 12.8163 13.5147 12.8263 13.445C12.8364 13.3753 12.8574 13.2593 12.8731 13.1871C12.8888 13.1149 12.9186 12.9629 12.9393 12.8493C12.96 12.7357 12.9821 12.6298 12.9884 12.614L12.9997 12.5853H12.5413H12.0828L12.0535 12.7437C12.0373 12.8308 12.0158 12.955 12.0056 13.0197C11.9954 13.0844 11.9613 13.2921 11.9297 13.4812C11.8982 13.6703 11.8516 13.9513 11.8262 14.1055C11.8008 14.2598 11.7545 14.5408 11.7234 14.7299C11.6923 14.919 11.641 15.2122 11.6093 15.3814C11.5777 15.5506 11.5319 15.7909 11.5075 15.9153C11.4832 16.0397 11.4368 16.2759 11.4044 16.4401C11.3721 16.6044 11.3248 16.8365 11.2995 16.9559C11.2742 17.0754 11.2462 17.2138 11.2373 17.2636C11.2284 17.3133 11.1994 17.4569 11.1729 17.5826C11.1464 17.7082 11.1247 17.8243 11.1247 17.8404V17.8698H11.5793H11.5793ZM16.612 17.8698H17.0144L17.0258 17.8412C17.032 17.8255 17.0371 17.7842 17.0371 17.7494C17.0371 17.7147 17.0624 17.5342 17.0934 17.3482C17.1243 17.1623 17.1754 16.8595 17.2069 16.6754C17.2385 16.4913 17.285 16.2225 17.3104 16.0782C17.3358 15.9339 17.3809 15.6936 17.4107 15.5443C17.4405 15.395 17.4862 15.1629 17.5124 15.0285C17.5385 14.8941 17.5898 14.6385 17.6264 14.4604C17.6631 14.2823 17.6976 14.1295 17.7032 14.1207L17.7133 14.1048L17.3064 14.1097L16.8994 14.1146L16.8655 14.3499C16.8468 14.4793 16.8061 14.7358 16.7749 14.9199C16.7437 15.1041 16.6966 15.385 16.6701 15.5443C16.6437 15.7036 16.5975 15.9601 16.5676 16.1144C16.5377 16.2687 16.4918 16.5048 16.4657 16.6392C16.4395 16.7736 16.3926 17.0098 16.3615 17.164C16.3303 17.3183 16.2884 17.5219 16.2685 17.6165C16.2485 17.711 16.2271 17.8067 16.2209 17.8291L16.2095 17.8698H16.612ZM26.0245 17.8698H26.424L26.436 17.7064C26.4426 17.6164 26.4652 17.4352 26.4862 17.3037C26.5073 17.1721 26.5503 16.9098 26.5819 16.7206C26.6135 16.5315 26.6723 16.2167 26.7124 16.0211C26.7526 15.8255 26.798 15.6311 26.8134 15.589C26.8287 15.547 26.8412 15.5014 26.8412 15.4878C26.8412 15.4742 26.8713 15.3999 26.908 15.3227C26.9447 15.2455 27.0131 15.1273 27.06 15.06L27.1453 14.9377L27.2594 14.8355L27.3736 14.7333L27.5144 14.6683L27.6551 14.6032L27.8703 14.6043L28.0855 14.6054L28.1913 14.636C28.2494 14.6528 28.3021 14.6666 28.3082 14.6666C28.3143 14.6666 28.3193 14.6473 28.3193 14.6238C28.3193 14.6003 28.3404 14.4811 28.3661 14.3589C28.3918 14.2367 28.4129 14.1316 28.4129 14.1253C28.4129 14.119 28.3519 14.0959 28.2772 14.0739C28.2026 14.052 28.0995 14.029 28.048 14.0229L27.9545 14.0117L27.8329 14.0325C27.766 14.0439 27.6665 14.0692 27.6119 14.0886C27.5572 14.1081 27.4669 14.1521 27.4113 14.1866C27.3556 14.221 27.269 14.2881 27.2189 14.3357C27.1687 14.3833 27.0843 14.4792 27.0314 14.5489C26.9784 14.6186 26.923 14.6919 26.9083 14.7118L26.8815 14.748L26.8978 14.6756C26.9067 14.6358 26.9316 14.5055 26.9531 14.386C26.9747 14.2666 26.9967 14.1546 27.0022 14.1372L27.0122 14.1055H26.6554H26.2986V14.1492C26.2986 14.1731 26.2776 14.3177 26.2519 14.4704C26.2261 14.6231 26.1837 14.8783 26.1576 15.0376C26.1314 15.1968 26.085 15.4737 26.0545 15.6529C26.0239 15.832 25.9775 16.0886 25.9514 16.2229C25.9252 16.3573 25.8788 16.5935 25.8482 16.7478C25.8176 16.9021 25.7668 17.1545 25.7353 17.3088C25.7038 17.4631 25.6661 17.6453 25.6516 17.7137C25.637 17.7821 25.6251 17.8452 25.6251 17.854V17.8698H26.0245V17.8698ZM35.5072 17.8698H35.9157V17.7489V17.628L35.9627 17.3282C35.9886 17.1632 36.0313 16.9021 36.0576 16.7478C36.084 16.5935 36.1168 16.3981 36.1305 16.3134C36.1443 16.2288 36.1808 16.0456 36.2116 15.9063C36.2425 15.7669 36.281 15.6162 36.2972 15.5714C36.3135 15.5267 36.3269 15.4797 36.327 15.467C36.3272 15.4544 36.362 15.3731 36.4044 15.2863L36.4815 15.1286L36.5832 14.9979L36.6849 14.8672L36.7962 14.7862C36.8575 14.7417 36.9559 14.6826 37.015 14.6549L37.1225 14.6046L37.3564 14.6061L37.5902 14.6077L37.6823 14.6363L37.7744 14.6649L37.7899 14.6556L37.8054 14.6463L37.8062 14.5886C37.8066 14.5568 37.8266 14.4387 37.8507 14.326L37.8944 14.1211L37.8452 14.1025C37.8182 14.0922 37.754 14.071 37.7025 14.0553L37.6089 14.0268L37.4406 14.0273L37.2722 14.0277L37.1349 14.0744L36.9977 14.1211L36.8947 14.1812L36.7916 14.2413L36.6577 14.377L36.5237 14.5127L36.4517 14.618C36.4121 14.6759 36.3773 14.7207 36.3743 14.7176C36.3713 14.7144 36.3928 14.5937 36.4221 14.4494C36.4514 14.3051 36.4757 14.1687 36.4762 14.1463L36.477 14.1055H36.1308H35.7847V14.1171C35.7847 14.1234 35.7674 14.2395 35.7464 14.375C35.7253 14.5105 35.6829 14.772 35.6523 14.9561C35.6216 15.1403 35.5713 15.4375 35.5404 15.6167C35.5096 15.7959 35.4631 16.0524 35.4371 16.1868C35.4112 16.3211 35.365 16.5573 35.3346 16.7116C35.3042 16.8659 35.2542 17.1143 35.2236 17.2636C35.1929 17.4129 35.1523 17.6104 35.1333 17.7024L35.0988 17.8699H35.5072L35.5072 17.8698ZM17.4033 13.4536L17.5169 13.454L17.6072 13.4243L17.6975 13.3945L17.7774 13.3161L17.8574 13.2377L17.8995 13.1332L17.9416 13.0287L17.9431 12.8749L17.9446 12.7211L17.9071 12.661L17.8697 12.6009L17.8046 12.5619L17.7394 12.5229H17.5988L17.4581 12.5229L17.3623 12.5644L17.2666 12.6058L17.211 12.6635L17.1554 12.7211L17.1117 12.8206L17.0681 12.9201L17.0598 13.0752L17.0516 13.2302L17.0922 13.3073L17.1329 13.3844L17.2113 13.4188L17.2897 13.4532L17.4033 13.4536V13.4536Z" fill="#B3131B"/>
<defs>
<filter id="filter0_d_4136_11148" x="0" y="0" width="53.0156" height="34" filterUnits="userSpaceOnUse" color-interpolation-filters="sRGB">
<feFlood flood-opacity="0" result="BackgroundImageFix"/>
<feColorMatrix in="SourceAlpha" type="matrix" values="0 0 0 0 0 0 0 0 0 0 0 0 0 0 0 0 0 0 127 0" result="hardAlpha"/>
<feOffset dy="1"/>
<feGaussianBlur stdDeviation="1.5"/>
<feColorMatrix type="matrix" values="0 0 0 0 0 0 0 0 0 0 0 0 0 0 0 0 0 0 0.3 0"/>
<feBlend mode="normal" in2="BackgroundImageFix" result="effect1_dropShadow_4136_11148"/>
<feBlend mode="normal" in="SourceGraphic" in2="effect1_dropShadow_4136_11148" result="shape"/>
</filter>
<linearGradient id="paint0_linear_4136_11148" x1="3" y1="2" x2="3" y2="30" gradientUnits="userSpaceOnUse">
<stop stop-color="white"/>
<stop offset="1" stop-color="#E0E0E0"/>
</linearGradient>
</defs>
</svg>
