<svg width="54" height="34" viewBox="0 0 54 34" fill="none" xmlns="http://www.w3.org/2000/svg">
<g filter="url(#filter0_d_4136_11118)">
<rect x="3" y="2" width="47.0165" height="28" rx="2.8875" fill="url(#paint0_linear_4136_11118)"/>
</g>
<mask id="mask0_4136_11118" style="mask-type:alpha" maskUnits="userSpaceOnUse" x="17" y="5" width="18" height="15">
<path fill-rule="evenodd" clip-rule="evenodd" d="M17.1074 5.7334H34.9737V19.7334H17.1074V5.7334Z" fill="white"/>
</mask>
<g mask="url(#mask0_4136_11118)">
<path fill-rule="evenodd" clip-rule="evenodd" d="M27.0231 19.7333C30.6883 19.7519 34.0334 16.6133 34.0334 12.7942C34.0334 8.61887 30.6883 5.7329 27.0231 5.7334H23.8686C20.1602 5.7329 17.1074 8.61938 17.1074 12.7942C17.1074 16.6138 20.1602 19.7519 23.8686 19.7333H27.0231Z" fill="#0064A7"/>
</g>
<path fill-rule="evenodd" clip-rule="evenodd" d="M24.4697 6.76367C21.1013 6.76463 18.3716 9.50098 18.3711 12.8774C18.3716 16.2534 21.1013 18.9888 24.4697 18.9898C27.8386 18.9888 30.5689 16.2534 30.5694 12.8774C30.5689 9.50098 27.8386 6.76463 24.4697 6.76367ZM20.6056 12.8773C20.6084 11.2271 21.6368 9.82022 23.0868 9.2609V16.4928C21.6368 15.9335 20.6084 14.5276 20.6056 12.8773ZM25.8526 16.4938V9.2609C27.3036 9.81831 28.3339 11.2262 28.3358 12.8773C28.3334 14.5285 27.3036 15.9354 25.8526 16.4938Z" fill="#FEFEFE"/>
<path fill-rule="evenodd" clip-rule="evenodd" d="M10.2312 20.8123C10.2312 20.177 9.9007 20.2191 9.58398 20.2124V20.0288C9.85825 20.0422 10.1401 20.0422 10.4149 20.0422C10.7106 20.0422 11.1122 20.0288 11.634 20.0288C13.4585 20.0288 14.4516 21.2497 14.4516 22.4998C14.4516 23.1992 14.0433 24.957 11.5491 24.957C11.19 24.957 10.8585 24.9432 10.5274 24.9432C10.2112 24.9432 9.9007 24.9498 9.58398 24.957V24.7739C10.0061 24.7314 10.2112 24.717 10.2312 24.2371V20.8123ZM10.9208 24.1242C10.9208 24.6673 11.3091 24.7314 11.6539 24.7314C13.1759 24.7314 13.6758 23.5802 13.6758 22.528C13.6758 21.2081 12.8301 20.2549 11.4707 20.2549C11.1817 20.2549 11.0481 20.2755 10.9208 20.2831V24.1242Z" fill="#1D1C1A"/>
<path fill-rule="evenodd" clip-rule="evenodd" d="M14.6992 24.7736H14.8328C15.0298 24.7736 15.171 24.7736 15.171 24.5398V22.6267C15.171 22.3164 15.0655 22.2734 14.8046 22.1329V22.02C15.1357 21.9206 15.5306 21.7868 15.5583 21.7657C15.6079 21.7375 15.6498 21.7299 15.6851 21.7299C15.72 21.7299 15.7347 21.7724 15.7347 21.8293V24.5398C15.7347 24.7736 15.8898 24.7736 16.0872 24.7736H16.2065V24.9572C15.967 24.9572 15.72 24.9428 15.4672 24.9428C15.2134 24.9428 14.9596 24.95 14.6992 24.9572V24.7736ZM15.4551 20.6434C15.2714 20.6434 15.1092 20.4737 15.1092 20.2901C15.1092 20.1132 15.2791 19.9507 15.4551 19.9507C15.6373 19.9507 15.7999 20.0994 15.7999 20.2901C15.7999 20.4813 15.6449 20.6434 15.4551 20.6434Z" fill="#1D1C1A"/>
<path fill-rule="evenodd" clip-rule="evenodd" d="M16.8772 22.6694C16.8772 22.4088 16.7994 22.3381 16.4689 22.2037V22.0699C16.7713 21.9709 17.0598 21.8791 17.3985 21.7305C17.4195 21.7305 17.44 21.7448 17.44 21.8007V22.2601C17.8421 21.9709 18.1874 21.7305 18.6601 21.7305C19.2582 21.7305 19.47 22.1684 19.47 22.7191V24.5404C19.47 24.7737 19.6246 24.7737 19.822 24.7737H19.9489V24.9573C19.7018 24.9573 19.4552 24.9434 19.2024 24.9434C18.9482 24.9434 18.6949 24.9501 18.4407 24.9573V24.7737H18.5676C18.765 24.7737 18.9053 24.7737 18.9053 24.5404V22.7124C18.9053 22.3094 18.6601 22.112 18.2585 22.112C18.0329 22.112 17.6732 22.295 17.44 22.4509V24.5404C17.44 24.7737 17.596 24.7737 17.793 24.7737H17.9198V24.9573C17.6732 24.9573 17.4266 24.9434 17.1729 24.9434C16.9196 24.9434 16.6659 24.9501 16.4121 24.9573V24.7737H16.5395C16.7365 24.7737 16.8772 24.7737 16.8772 24.5404V22.6694Z" fill="#1D1C1A"/>
<path fill-rule="evenodd" clip-rule="evenodd" d="M20.4822 23.0085C20.4674 23.0721 20.4674 23.1778 20.4822 23.4182C20.5233 24.0889 20.954 24.6396 21.5168 24.6396C21.9051 24.6396 22.2084 24.4274 22.4689 24.1664L22.5671 24.2653C22.2428 24.696 21.8416 25.0632 21.264 25.0632C20.1436 25.0632 19.918 23.9756 19.918 23.5239C19.918 22.1399 20.8481 21.7302 21.3408 21.7302C21.9117 21.7302 22.5251 22.0902 22.5318 22.8388C22.5318 22.8814 22.5318 22.9234 22.5251 22.9665L22.4612 23.0085H20.4822ZM21.7272 22.7824C21.9032 22.7824 21.9237 22.6901 21.9237 22.606C21.9237 22.246 21.7053 21.9563 21.3108 21.9563C20.8815 21.9563 20.5858 22.2732 20.5009 22.7824H21.7272Z" fill="#1D1C1A"/>
<path fill-rule="evenodd" clip-rule="evenodd" d="M22.6934 24.7737H22.8837C23.0807 24.7737 23.2214 24.7737 23.2214 24.54V22.5565C23.2214 22.3381 22.9609 22.295 22.8551 22.2386V22.133C23.3692 21.914 23.6511 21.73 23.7155 21.73C23.7565 21.73 23.778 21.7515 23.778 21.8222V22.4576H23.7928C23.9683 22.1827 24.2645 21.73 24.6943 21.73C24.8703 21.73 25.0959 21.85 25.0959 22.1043C25.0959 22.295 24.9619 22.4652 24.7649 22.4652C24.5455 22.4652 24.5455 22.295 24.2993 22.295C24.1796 22.295 23.7852 22.4576 23.7852 22.8816V24.54C23.7852 24.7737 23.9254 24.7737 24.1233 24.7737H24.5173V24.9573C24.13 24.9501 23.8352 24.9429 23.5314 24.9429C23.2428 24.9429 22.9471 24.9501 22.6934 24.9573V24.7737Z" fill="#1D1C1A"/>
<path fill-rule="evenodd" clip-rule="evenodd" d="M25.4047 23.9756C25.4963 24.4417 25.7782 24.8371 26.2924 24.8371C26.7073 24.8371 26.8623 24.5832 26.8623 24.3361C26.8623 23.5028 25.3269 23.771 25.3269 22.6342C25.3269 22.2389 25.6446 21.7302 26.4192 21.7302C26.6444 21.7302 26.9472 21.7943 27.222 21.9353L27.2711 22.6548H27.1094C27.0388 22.2107 26.7922 21.9563 26.341 21.9563C26.0596 21.9563 25.792 22.1189 25.792 22.4224C25.792 23.249 27.4266 22.9942 27.4266 24.1028C27.4266 24.5689 27.0531 25.0632 26.2146 25.0632C25.9327 25.0632 25.6017 24.9642 25.3551 24.8232L25.2773 24.0115L25.4047 23.9756Z" fill="#1D1C1A"/>
<path fill-rule="evenodd" clip-rule="evenodd" d="M33.7892 21.3065H33.6132C33.4792 20.481 32.8944 20.1487 32.1055 20.1487C31.2951 20.1487 30.1184 20.6923 30.1184 22.3869C30.1184 23.8139 31.1339 24.8374 32.2181 24.8374C32.9149 24.8374 33.4935 24.3575 33.6342 23.6155L33.7964 23.6576L33.6342 24.6887C33.3385 24.8728 32.5424 25.0631 32.0769 25.0631C30.4289 25.0631 29.3867 23.997 29.3867 22.4085C29.3867 20.9609 30.6755 19.9221 32.0559 19.9221C32.6264 19.9221 33.1763 20.1066 33.7186 20.2974L33.7892 21.3065Z" fill="#1D1C1A"/>
<path fill-rule="evenodd" clip-rule="evenodd" d="M34.0449 24.7737H34.178C34.3759 24.7737 34.5171 24.7737 34.5171 24.5399V20.608C34.5171 20.1486 34.4112 20.1347 34.1437 20.0573V19.944C34.4251 19.8527 34.7208 19.7255 34.8691 19.6404C34.9459 19.5984 35.0027 19.5625 35.0237 19.5625C35.0661 19.5625 35.0804 19.605 35.0804 19.6615V24.5399C35.0804 24.7737 35.2355 24.7737 35.4329 24.7737H35.5522V24.9573C35.3132 24.9573 35.0661 24.9429 34.8129 24.9429C34.5596 24.9429 34.3058 24.9501 34.0449 24.9573V24.7737Z" fill="#1D1C1A"/>
<path fill-rule="evenodd" clip-rule="evenodd" d="M38.5682 24.5687C38.5682 24.6964 38.6455 24.7031 38.7652 24.7031C38.8496 24.7031 38.955 24.6964 39.0471 24.6964V24.845C38.7437 24.8728 38.1661 25.021 38.0321 25.0635L37.9968 25.042V24.4702C37.5746 24.8163 37.2503 25.0635 36.7495 25.0635C36.3693 25.0635 35.9749 24.8163 35.9749 24.2236V22.4156C35.9749 22.232 35.9467 22.0556 35.5527 22.0202V21.8859C35.8065 21.8792 36.3693 21.8367 36.4614 21.8367C36.5391 21.8367 36.5391 21.8859 36.5391 22.0413V23.8626C36.5391 24.0749 36.5391 24.682 37.1516 24.682C37.391 24.682 37.7082 24.4984 38.0039 24.2518V22.3515C38.0039 22.2105 37.6658 22.1335 37.4125 22.0628V21.9356C38.0459 21.8931 38.4408 21.8367 38.5114 21.8367C38.5682 21.8367 38.5682 21.8859 38.5682 21.9638V24.5687Z" fill="#1D1C1A"/>
<mask id="mask1_4136_11118" style="mask-type:alpha" maskUnits="userSpaceOnUse" x="39" y="19" width="4" height="7">
<path fill-rule="evenodd" clip-rule="evenodd" d="M39.0312 19.5625H42.3281V25.0634H39.0312V19.5625Z" fill="white"/>
</mask>
<g mask="url(#mask1_4136_11118)">
<path fill-rule="evenodd" clip-rule="evenodd" d="M39.9685 22.2386C40.2499 21.9991 40.6306 21.7305 41.0183 21.7305C41.8354 21.7305 42.3281 22.4442 42.3281 23.2134C42.3281 24.1384 41.6518 25.0634 40.6444 25.0634C40.1235 25.0634 39.8488 24.8942 39.6652 24.8163L39.4543 24.9783L39.3069 24.9009C39.369 24.4845 39.4047 24.0748 39.4047 23.6441V20.608C39.4047 20.1491 39.2988 20.1352 39.0312 20.0573V19.9445C39.3136 19.8527 39.6089 19.7255 39.7572 19.6404C39.8345 19.5984 39.8903 19.5625 39.9122 19.5625C39.9547 19.5625 39.9685 19.6055 39.9685 19.6619V22.2386ZM39.9687 24.1593C39.9687 24.4274 40.222 24.8797 40.6942 24.8797C41.4483 24.8797 41.765 24.1382 41.765 23.5091C41.765 22.7471 41.1878 22.1118 40.6384 22.1118C40.3765 22.1118 40.1585 22.2815 39.9687 22.444V24.1593Z" fill="#1D1C1A"/>
</g>
<defs>
<filter id="filter0_d_4136_11118" x="0" y="0" width="53.0156" height="34" filterUnits="userSpaceOnUse" color-interpolation-filters="sRGB">
<feFlood flood-opacity="0" result="BackgroundImageFix"/>
<feColorMatrix in="SourceAlpha" type="matrix" values="0 0 0 0 0 0 0 0 0 0 0 0 0 0 0 0 0 0 127 0" result="hardAlpha"/>
<feOffset dy="1"/>
<feGaussianBlur stdDeviation="1.5"/>
<feColorMatrix type="matrix" values="0 0 0 0 0 0 0 0 0 0 0 0 0 0 0 0 0 0 0.3 0"/>
<feBlend mode="normal" in2="BackgroundImageFix" result="effect1_dropShadow_4136_11118"/>
<feBlend mode="normal" in="SourceGraphic" in2="effect1_dropShadow_4136_11118" result="shape"/>
</filter>
<linearGradient id="paint0_linear_4136_11118" x1="3" y1="2" x2="3" y2="30" gradientUnits="userSpaceOnUse">
<stop stop-color="white"/>
<stop offset="1" stop-color="#E0E0E0"/>
</linearGradient>
</defs>
</svg>
