<svg width="54" height="34" viewBox="0 0 54 34" fill="none" xmlns="http://www.w3.org/2000/svg">
<g filter="url(#filter0_d_4136_11151)">
<rect x="3" y="2" width="47.0165" height="28" rx="2.8875" fill="url(#paint0_linear_4136_11151)"/>
</g>
<path d="M22.8828 22.4582V14.0803C22.8828 12.5387 24.1325 11.2891 25.6739 11.2891L28.1476 11.2928C29.6846 11.2958 30.9291 12.5427 30.9291 14.0798V15.8631C30.9291 17.4047 29.6794 18.6543 28.1379 18.6543H24.6425" stroke="#939598" stroke-width="1.34219" stroke-miterlimit="10" stroke-linecap="round" stroke-linejoin="round"/>
<path d="M31.6211 11.2878H32.6941C33.3268 11.2878 33.8395 11.8007 33.8395 12.4333V18.6917" stroke="#939598" stroke-width="1.34219" stroke-miterlimit="10" stroke-linecap="round" stroke-linejoin="round"/>
<path d="M33.6084 10.3183L33.1218 9.83166C33.0011 9.71093 33.0011 9.51515 33.1218 9.39442L33.6081 8.90807C33.7291 8.78715 33.9251 8.78715 34.046 8.90807L34.5323 9.39442C34.6531 9.51515 34.6531 9.71093 34.5323 9.83166L34.0457 10.3183C33.925 10.439 33.7292 10.439 33.6084 10.3183Z" fill="#32BCAD"/>
<path d="M35.8965 11.2825H36.9606C37.5081 11.2825 38.0331 11.5 38.4201 11.887L40.9091 14.376C41.2315 14.6984 41.7542 14.6984 42.0767 14.376L44.5566 11.8961C44.9436 11.5091 45.4686 11.2916 46.016 11.2916H46.8812" stroke="#939598" stroke-width="1.34219" stroke-miterlimit="10" stroke-linecap="round" stroke-linejoin="round"/>
<path d="M35.8965 18.6369H36.9606C37.5081 18.6369 38.0331 18.4194 38.4201 18.0323L40.9091 15.5433C41.2315 15.2209 41.7542 15.2209 42.0767 15.5433L44.5566 18.0232C44.9436 18.4103 45.4686 18.6277 46.016 18.6277H46.8812" stroke="#939598" stroke-width="1.34219" stroke-miterlimit="10" stroke-linecap="round" stroke-linejoin="round"/>
<path d="M16.5395 20.227C16.0055 20.227 15.5031 20.0191 15.1255 19.6416L13.0837 17.5998C12.9404 17.4561 12.6905 17.4565 12.5472 17.5998L10.4981 19.6491C10.1204 20.0266 9.61806 20.2345 9.08401 20.2345H8.68164L11.2676 22.8204C12.0751 23.628 13.3845 23.628 14.1922 22.8204L16.7855 20.227H16.5395Z" fill="#32BCAD"/>
<path d="M9.08389 13.005C9.61795 13.005 10.1203 13.213 10.4979 13.5904L12.5471 15.64C12.6947 15.7876 12.9357 15.7882 13.0836 15.6398L15.1254 13.5979C15.503 13.2204 16.0053 13.0125 16.5394 13.0125H16.7853L14.1921 10.4192C13.3844 9.61157 12.075 9.61157 11.2675 10.4192L8.68164 13.005L9.08389 13.005Z" fill="#32BCAD"/>
<path d="M18.9288 15.1576L17.3617 13.5905C17.3272 13.6043 17.2898 13.6129 17.2504 13.6129H16.5378C16.1695 13.6129 15.8089 13.7623 15.5486 14.0228L13.5069 16.0645C13.3158 16.2556 13.0648 16.3512 12.814 16.3512C12.5629 16.3512 12.312 16.2556 12.121 16.0647L10.0716 14.0154C9.81132 13.7548 9.45071 13.6055 9.08234 13.6055H8.20621C8.16884 13.6055 8.13392 13.5966 8.10096 13.5842L6.5276 15.1576C5.71997 15.9652 5.71997 17.2746 6.5276 18.0822L8.10089 19.6555C8.13392 19.6431 8.16884 19.6343 8.20621 19.6343H9.08234C9.45071 19.6343 9.81132 19.4849 10.0716 19.2244L12.1208 17.1752C12.4912 16.8051 13.1369 16.805 13.5069 17.1754L15.5486 19.217C15.8089 19.4774 16.1695 19.6269 16.5378 19.6269H17.2504C17.2898 19.6269 17.3272 19.6355 17.3617 19.6493L18.9288 18.0822C19.7364 17.2745 19.7364 15.9652 18.9288 15.1576" fill="#32BCAD"/>
<path d="M25.0069 21.746C24.8912 21.746 24.7566 21.7738 24.6235 21.8045V22.3151C24.7157 22.3488 24.821 22.365 24.922 22.365C25.178 22.365 25.2994 22.2786 25.2994 22.0531C25.2994 21.8411 25.2 21.746 25.0069 21.746ZM24.5371 22.6941V21.6845H24.6074L24.6147 21.7285C24.7332 21.7006 24.897 21.6641 25.0141 21.6641C25.1093 21.6641 25.2 21.6786 25.276 21.7401C25.3639 21.8119 25.3916 21.9274 25.3916 22.0531C25.3916 22.185 25.3477 22.3093 25.2277 22.378C25.1444 22.4248 25.0317 22.4439 24.9307 22.4439C24.8268 22.4439 24.7274 22.4277 24.6235 22.3971V22.6941H24.5371Z" fill="#939598"/>
<path d="M26.0386 21.743C25.7825 21.743 25.6684 21.8236 25.6684 22.0489C25.6684 22.2669 25.7811 22.365 26.0386 22.365C26.2932 22.365 26.4073 22.2859 26.4073 22.0606C26.4073 21.8426 26.2947 21.743 26.0386 21.743ZM26.3678 22.365C26.2829 22.4263 26.1688 22.4439 26.0386 22.4439C25.9055 22.4439 25.7913 22.4249 25.7079 22.365C25.6143 22.2992 25.5762 22.1908 25.5762 22.0548C25.5762 21.9201 25.6143 21.8105 25.7079 21.743C25.7913 21.6831 25.9055 21.6641 26.0386 21.6641C26.1702 21.6641 26.2829 21.6831 26.3678 21.743C26.4629 21.8105 26.4995 21.9201 26.4995 22.0532C26.4995 22.1894 26.4614 22.2992 26.3678 22.365Z" fill="#939598"/>
<path d="M27.5809 22.4233L27.2956 21.8103H27.2897L27.0088 22.4233H26.9313L26.627 21.6843H26.7221L26.9752 22.3047H26.9811L27.2561 21.6843H27.3351L27.6175 22.3047H27.6234L27.8707 21.6843H27.9628L27.6585 22.4233H27.5809Z" fill="#939598"/>
<path d="M28.5117 21.7416C28.2747 21.7416 28.1943 21.8469 28.1796 21.9992H28.8439C28.8366 21.8309 28.7502 21.7416 28.5117 21.7416ZM28.5089 22.4439C28.3668 22.4439 28.2747 22.4234 28.2016 22.3619C28.1152 22.2873 28.0859 22.1791 28.0859 22.0548C28.0859 21.9362 28.1255 21.8104 28.2236 21.7387C28.3054 21.6817 28.4064 21.6641 28.5117 21.6641C28.6069 21.6641 28.7166 21.6743 28.8073 21.7358C28.9141 21.8074 28.9347 21.9334 28.9347 22.0767H28.1767C28.1796 22.2288 28.2294 22.3635 28.5161 22.3635C28.6522 22.3635 28.7795 22.3415 28.898 22.321V22.3985C28.7751 22.4206 28.639 22.4439 28.5089 22.4439Z" fill="#939598"/>
<path d="M29.1816 22.4234V21.6845H29.2518L29.2593 21.7285C29.4158 21.689 29.4889 21.6641 29.6265 21.6641H29.6367V21.746H29.6162C29.5007 21.746 29.4305 21.762 29.2681 21.8045V22.4234H29.1816Z" fill="#939598"/>
<path d="M30.1387 21.7416C29.9017 21.7416 29.8212 21.8469 29.8065 21.9992H30.4709C30.4636 21.8309 30.3772 21.7416 30.1387 21.7416ZM30.1358 22.4439C29.9938 22.4439 29.9017 22.4234 29.8285 22.3619C29.7421 22.2873 29.7129 22.1791 29.7129 22.0548C29.7129 21.9362 29.7525 21.8104 29.8505 21.7387C29.9324 21.6817 30.0334 21.6641 30.1387 21.6641C30.2339 21.6641 30.3436 21.6743 30.4342 21.7358C30.5411 21.8074 30.5616 21.9334 30.5616 22.0767H29.8037C29.8065 22.2288 29.8563 22.3635 30.143 22.3635C30.2791 22.3635 30.4064 22.3415 30.525 22.321V22.3985C30.4021 22.4206 30.266 22.4439 30.1358 22.4439Z" fill="#939598"/>
<path d="M31.5065 21.7927C31.4143 21.759 31.309 21.7429 31.208 21.7429C30.952 21.7429 30.8304 21.8294 30.8304 22.0546C30.8304 22.2681 30.93 22.3618 31.123 22.3618C31.2387 22.3618 31.3733 22.3339 31.5065 22.3047V21.7927ZM31.5226 22.4233L31.5153 22.3793C31.3967 22.4072 31.2328 22.4438 31.1158 22.4438C31.0208 22.4438 30.93 22.4306 30.8539 22.3677C30.7661 22.296 30.7383 22.1804 30.7383 22.0546C30.7383 21.9229 30.7822 21.7985 30.9021 21.7312C30.9856 21.6829 31.0982 21.6639 31.2007 21.6639C31.3031 21.6639 31.4026 21.6815 31.5065 21.7108V21.3728H31.5928V22.4233H31.5226Z" fill="#939598"/>
<path d="M32.8585 21.7459C32.7428 21.7459 32.6082 21.7738 32.475 21.8045V22.3136C32.5687 22.3487 32.6726 22.3649 32.7736 22.3649C33.0296 22.3649 33.151 22.2785 33.151 22.053C33.151 21.8411 33.0515 21.7459 32.8585 21.7459ZM33.0794 22.3779C32.9959 22.4248 32.8833 22.4438 32.7823 22.4438C32.6726 22.4438 32.5629 22.4248 32.4517 22.3882L32.4473 22.4234H32.3887V21.3728H32.475V21.7253C32.5936 21.6992 32.753 21.664 32.8657 21.664C32.9609 21.664 33.0515 21.6785 33.1276 21.74C33.2154 21.8118 33.2432 21.9273 33.2432 22.053C33.2432 22.185 33.1992 22.3092 33.0794 22.3779Z" fill="#939598"/>
<path d="M33.3593 22.7071V22.6267C33.4017 22.631 33.4413 22.634 33.4691 22.634C33.5759 22.634 33.6402 22.6032 33.7002 22.4817L33.728 22.4233L33.3418 21.6843H33.4413L33.772 22.3222H33.7778L34.0924 21.6843H34.1904L33.7749 22.514C33.6988 22.6647 33.6168 22.7144 33.4661 22.7144C33.4324 22.7144 33.3959 22.7115 33.3593 22.7071" fill="#939598"/>
<path d="M35.3798 22.002H35.093V22.2611H35.3812C35.5787 22.2611 35.6534 22.239 35.6534 22.1308C35.6534 22.0151 35.551 22.002 35.3798 22.002ZM35.3272 21.5821H35.093V21.8454H35.3286C35.5232 21.8454 35.6007 21.8221 35.6007 21.7123C35.6007 21.5953 35.5027 21.5821 35.3272 21.5821ZM35.7719 22.3532C35.6665 22.4205 35.5392 22.4234 35.3066 22.4234H34.8691V21.4211H35.2964C35.4968 21.4211 35.6197 21.424 35.7221 21.4855C35.7954 21.5295 35.8245 21.5967 35.8245 21.6845C35.8245 21.7898 35.7807 21.8601 35.6665 21.9069V21.9127C35.7954 21.9421 35.8787 22.0079 35.8787 22.1498C35.8787 22.2463 35.8436 22.3093 35.7719 22.3532" fill="#939598"/>
<path d="M36.7547 22.1133C36.6683 22.1059 36.5805 22.1016 36.4884 22.1016C36.3377 22.1016 36.2849 22.1323 36.2849 22.201C36.2849 22.2654 36.3289 22.3006 36.4444 22.3006C36.541 22.3006 36.6566 22.2787 36.7547 22.2566V22.1133ZM36.7985 22.4234L36.7927 22.3795C36.6668 22.4104 36.5206 22.4439 36.3917 22.4439C36.3127 22.4439 36.2279 22.4337 36.1678 22.3897C36.1124 22.3503 36.0859 22.2859 36.0859 22.2113C36.0859 22.1278 36.1226 22.0503 36.2103 22.0109C36.2878 21.9743 36.3917 21.9714 36.4869 21.9714C36.5644 21.9714 36.6682 21.9757 36.7547 21.9816V21.9684C36.7547 21.8528 36.6785 21.8148 36.4708 21.8148C36.3903 21.8148 36.2922 21.8191 36.1986 21.8279V21.6786C36.3024 21.67 36.4196 21.6641 36.5161 21.6641C36.6448 21.6641 36.7781 21.6743 36.86 21.7328C36.9448 21.7929 36.961 21.8763 36.961 21.9859V22.4234L36.7985 22.4234Z" fill="#939598"/>
<path d="M37.924 22.4234V22.0151C37.924 21.8806 37.8553 21.8323 37.7323 21.8323C37.6417 21.8323 37.5275 21.8557 37.4309 21.8792V22.4234H37.2246V21.6845H37.3929L37.4002 21.7313C37.5304 21.6978 37.6753 21.6641 37.7953 21.6641C37.8859 21.6641 37.9782 21.6772 38.0484 21.7401C38.1068 21.7929 38.1289 21.8659 38.1289 21.9713V22.4234H37.924Z" fill="#939598"/>
<path d="M38.7144 22.4439C38.6193 22.4439 38.5154 22.4308 38.4393 22.3664C38.3486 22.2932 38.3223 22.1776 38.3223 22.0531C38.3223 21.9362 38.3603 21.8088 38.473 21.7372C38.5652 21.6772 38.6793 21.6641 38.7978 21.6641C38.8827 21.6641 38.9661 21.6699 39.0582 21.6786V21.8366C38.9835 21.8294 38.8943 21.8235 38.8227 21.8235C38.6265 21.8235 38.5344 21.885 38.5344 22.0548C38.5344 22.2143 38.6032 22.2829 38.7641 22.2829C38.8577 22.2829 38.9676 22.2654 39.0744 22.2449V22.397C38.9587 22.4206 38.8329 22.4439 38.7144 22.4439" fill="#939598"/>
<path d="M39.6821 21.819C39.486 21.819 39.3997 21.8806 39.3997 22.0488C39.3997 22.2171 39.4846 22.2889 39.6821 22.2889C39.8767 22.2889 39.9615 22.2288 39.9615 22.0605C39.9615 21.8923 39.8782 21.819 39.6821 21.819ZM40.0362 22.3664C39.9455 22.4277 39.8269 22.4439 39.6821 22.4439C39.5343 22.4439 39.4158 22.4263 39.3266 22.3664C39.2241 22.2991 39.1875 22.1879 39.1875 22.0548C39.1875 21.9215 39.2241 21.8088 39.3266 21.7416C39.4158 21.6816 39.5343 21.6641 39.6821 21.6641C39.8285 21.6641 39.9455 21.6816 40.0362 21.7416C40.1386 21.8088 40.1737 21.9215 40.1737 22.0532C40.1737 22.1864 40.1371 22.2991 40.0362 22.3664Z" fill="#939598"/>
<path d="M41.366 22.444C41.2418 22.444 41.1072 22.4236 41.0061 22.3402C40.8862 22.2406 40.8496 22.087 40.8496 21.9216C40.8496 21.774 40.8964 21.5984 41.053 21.496C41.1744 21.417 41.3251 21.4009 41.4772 21.4009C41.5886 21.4009 41.7026 21.4082 41.827 21.4184V21.5984C41.7202 21.5896 41.5885 21.5822 41.4861 21.5822C41.2007 21.5822 41.0793 21.6906 41.0793 21.9216C41.0793 22.1574 41.1919 22.2627 41.4027 22.2627C41.5402 22.2627 41.6938 22.2349 41.8489 22.2026V22.381C41.6938 22.4119 41.5314 22.444 41.366 22.444" fill="#939598"/>
<path d="M42.4527 21.7957C42.2814 21.7957 42.2155 21.8573 42.2024 21.9699H42.6999C42.694 21.8499 42.6238 21.7957 42.4527 21.7957ZM42.4218 22.4439C42.3004 22.4439 42.1907 22.4294 42.1088 22.3619C42.021 22.2889 41.9902 22.1791 41.9902 22.0532C41.9902 21.9405 42.0269 21.8148 42.1293 21.7416C42.2199 21.6772 42.3356 21.6641 42.4527 21.6641C42.558 21.6641 42.6824 21.6757 42.773 21.7387C42.8916 21.8221 42.9018 21.9509 42.9032 22.103H42.201C42.2053 22.2157 42.2653 22.2889 42.4731 22.2889C42.6018 22.2889 42.7452 22.2699 42.8667 22.2508V22.3957C42.7248 22.4192 42.5697 22.4439 42.4218 22.4439Z" fill="#939598"/>
<path d="M43.8224 22.4234V22.0151C43.8224 21.8806 43.7537 21.8323 43.6307 21.8323C43.54 21.8323 43.426 21.8557 43.3293 21.8792V22.4234H43.123V21.6845H43.2913L43.2986 21.7313C43.4288 21.6978 43.5737 21.6641 43.6937 21.6641C43.7844 21.6641 43.8766 21.6772 43.9468 21.7401C44.0053 21.7929 44.0273 21.8659 44.0273 21.9713V22.4234H43.8224Z" fill="#939598"/>
<path d="M44.6133 22.444C44.5138 22.444 44.4231 22.4161 44.3733 22.3387C44.3368 22.2859 44.3192 22.2144 44.3192 22.1148V21.8382H44.1699V21.6846H44.3192L44.3412 21.4607H44.524V21.6846H44.8152V21.8382H44.524V22.0753C44.524 22.1324 44.5284 22.1806 44.5445 22.2158C44.5664 22.2655 44.6147 22.2845 44.6791 22.2845C44.7273 22.2845 44.7859 22.2771 44.8269 22.27V22.4176C44.7596 22.4309 44.682 22.444 44.6133 22.444" fill="#939598"/>
<path d="M45.0176 22.4234V21.6845H45.1859L45.1932 21.7313C45.3293 21.6933 45.4302 21.6641 45.559 21.6641C45.5648 21.6641 45.5736 21.6641 45.5853 21.6655V21.8411C45.5618 21.8397 45.5341 21.8397 45.5136 21.8397C45.4126 21.8397 45.3366 21.8513 45.2239 21.8778V22.4234L45.0176 22.4234Z" fill="#939598"/>
<path d="M46.3347 22.1133C46.2484 22.1059 46.1606 22.1016 46.0685 22.1016C45.9178 22.1016 45.865 22.1323 45.865 22.201C45.865 22.2654 45.9089 22.3006 46.0245 22.3006C46.1211 22.3006 46.2366 22.2787 46.3347 22.2566V22.1133ZM46.3786 22.4234L46.3728 22.3795C46.2469 22.4104 46.1006 22.4439 45.9718 22.4439C45.8928 22.4439 45.808 22.4337 45.7479 22.3897C45.6924 22.3503 45.666 22.2859 45.666 22.2113C45.666 22.1278 45.7027 22.0503 45.7904 22.0109C45.868 21.9743 45.9718 21.9714 46.067 21.9714C46.1445 21.9714 46.2484 21.9757 46.3348 21.9816V21.9684C46.3348 21.8528 46.2586 21.8148 46.0508 21.8148C45.9704 21.8148 45.8723 21.8191 45.7787 21.8279V21.6786C45.8825 21.67 45.9997 21.6641 46.0963 21.6641C46.225 21.6641 46.3582 21.6743 46.4401 21.7328C46.5249 21.7929 46.541 21.8763 46.541 21.9859V22.4234L46.3786 22.4234Z" fill="#939598"/>
<path d="M46.8047 21.3728H47.011V22.4233H46.8047V21.3728Z" fill="#939598"/>
<defs>
<filter id="filter0_d_4136_11151" x="0" y="0" width="53.0156" height="34" filterUnits="userSpaceOnUse" color-interpolation-filters="sRGB">
<feFlood flood-opacity="0" result="BackgroundImageFix"/>
<feColorMatrix in="SourceAlpha" type="matrix" values="0 0 0 0 0 0 0 0 0 0 0 0 0 0 0 0 0 0 127 0" result="hardAlpha"/>
<feOffset dy="1"/>
<feGaussianBlur stdDeviation="1.5"/>
<feColorMatrix type="matrix" values="0 0 0 0 0 0 0 0 0 0 0 0 0 0 0 0 0 0 0.3 0"/>
<feBlend mode="normal" in2="BackgroundImageFix" result="effect1_dropShadow_4136_11151"/>
<feBlend mode="normal" in="SourceGraphic" in2="effect1_dropShadow_4136_11151" result="shape"/>
</filter>
<linearGradient id="paint0_linear_4136_11151" x1="3" y1="2" x2="3" y2="30" gradientUnits="userSpaceOnUse">
<stop stop-color="white"/>
<stop offset="1" stop-color="#E0E0E0"/>
</linearGradient>
</defs>
</svg>
